<svg width="411" height="411" viewBox="0 0 411 411" fill="none" xmlns="http://www.w3.org/2000/svg">
<g clip-path="url(#clip0_358_1040)">
<path d="M0.849609 205.5C0.849609 92.2816 92.6312 0.5 205.85 0.5C319.068 0.5 410.85 92.2816 410.85 205.5C410.85 318.718 319.068 410.5 205.85 410.5C92.6312 410.5 0.849609 318.718 0.849609 205.5Z" fill="#CEBB86"/>
<path d="M382.475 117.497H365.975V114.747C365.975 96.5495 351.171 81.7463 332.974 81.7463H200.97C182.772 81.7463 167.969 96.5495 167.969 114.747V296.253C167.969 314.451 182.772 329.254 200.97 329.254H382.475V329.114C400.898 327.696 415.476 312.291 415.476 293.503V150.499C415.476 132.301 400.673 117.497 382.475 117.497ZM189.969 296.253V114.747C189.969 108.678 194.9 103.747 200.97 103.747H332.974C339.043 103.747 343.974 108.678 343.974 114.747V293.503C343.974 298.369 344.962 303.02 346.735 307.253H200.969C194.9 307.253 189.969 302.322 189.969 296.253ZM393.475 293.503C393.475 301.087 387.309 307.253 379.725 307.253C372.141 307.253 365.975 301.087 365.975 293.503V139.498H382.475C388.545 139.498 393.475 144.429 393.475 150.498V293.503ZM316.473 166.999C316.473 173.079 311.553 177.999 305.473 177.999H228.471C222.39 177.999 217.47 173.079 217.47 166.999C217.47 160.919 222.39 155.999 228.471 155.999H305.473C311.553 155.999 316.473 160.919 316.473 166.999ZM316.473 205.5C316.473 211.58 311.553 216.5 305.473 216.5H228.471C222.39 216.5 217.47 211.58 217.47 205.5C217.47 199.42 222.39 194.5 228.471 194.5H305.473C311.553 194.5 316.473 199.42 316.473 205.5ZM273.696 244.001C273.696 250.081 268.775 255.001 262.695 255.001H228.471C222.39 255.001 217.47 250.081 217.47 244.001C217.47 237.921 222.39 233.001 228.471 233.001H262.695C268.775 233.001 273.696 237.921 273.696 244.001Z" fill="#B19957"/>
<path d="M104.666 196.292H135.53V201.38H104.666V196.292ZM104.666 184.292H111.05V198.548H104.666V184.292ZM99.8176 206.228H140.042V211.364H99.8176V206.228ZM108.938 208.052H115.322V226.772H108.938V208.052ZM124.49 208.052H130.826V226.772H124.49V208.052ZM158.086 184.868H163.606V188.084C163.606 190.004 163.334 191.876 162.79 193.7C162.278 195.492 161.51 197.188 160.486 198.788C159.462 200.388 158.198 201.844 156.694 203.156C155.222 204.436 153.526 205.54 151.606 206.468C149.686 207.396 147.574 208.084 145.27 208.532L142.534 203.204C144.518 202.852 146.326 202.324 147.958 201.62C149.622 200.884 151.078 200.004 152.326 198.98C153.574 197.956 154.63 196.852 155.494 195.668C156.358 194.452 156.998 193.204 157.414 191.924C157.862 190.612 158.086 189.332 158.086 188.084V184.868ZM159.334 184.868H164.902V188.084C164.902 189.364 165.11 190.66 165.526 191.972C165.974 193.284 166.614 194.548 167.446 195.764C168.31 196.948 169.366 198.036 170.614 199.028C171.862 200.02 173.302 200.884 174.934 201.62C176.566 202.324 178.406 202.852 180.454 203.204L177.718 208.532C175.414 208.084 173.302 207.396 171.382 206.468C169.462 205.54 167.75 204.436 166.246 203.156C164.774 201.876 163.51 200.436 162.454 198.836C161.43 197.236 160.646 195.524 160.102 193.7C159.59 191.876 159.334 190.004 159.334 188.084V184.868ZM141.574 216.116H181.846V221.348H141.574V216.116ZM205.362 198.116C206.514 198.116 207.538 198.404 208.434 198.98C209.362 199.524 210.098 200.26 210.642 201.188C211.218 202.084 211.506 203.108 211.506 204.26C211.506 205.38 211.218 206.404 210.642 207.332C210.098 208.26 209.362 209.012 208.434 209.588C207.538 210.132 206.514 210.404 205.362 210.404C204.242 210.404 203.218 210.132 202.29 209.588C201.362 209.012 200.61 208.26 200.034 207.332C199.49 206.404 199.218 205.38 199.218 204.26C199.218 203.108 199.49 202.084 200.034 201.188C200.61 200.26 201.362 199.524 202.29 198.98C203.218 198.404 204.242 198.116 205.362 198.116ZM239.73 185.732H244.962V192.164C244.962 195.044 244.706 197.812 244.194 200.468C243.682 203.092 242.898 205.556 241.842 207.86C240.818 210.132 239.49 212.148 237.858 213.908C236.258 215.636 234.354 217.012 232.146 218.036L228.354 212.756C230.306 211.892 231.986 210.756 233.394 209.348C234.834 207.908 236.018 206.276 236.946 204.452C237.874 202.596 238.562 200.628 239.01 198.548C239.49 196.468 239.73 194.34 239.73 192.164V185.732ZM240.978 185.732H246.162V192.164C246.162 194.244 246.386 196.276 246.834 198.26C247.282 200.244 247.954 202.116 248.85 203.876C249.778 205.636 250.93 207.204 252.306 208.58C253.714 209.924 255.362 210.996 257.25 211.796L253.554 216.98C251.41 215.988 249.538 214.66 247.938 212.996C246.37 211.332 245.074 209.412 244.05 207.236C243.026 205.028 242.258 202.66 241.746 200.132C241.234 197.572 240.978 194.916 240.978 192.164V185.732ZM259.41 182.228H265.794V226.82H259.41V182.228ZM280.67 185.732H285.806V192.164C285.806 194.916 285.566 197.604 285.086 200.228C284.606 202.82 283.854 205.236 282.83 207.476C281.838 209.716 280.574 211.716 279.038 213.476C277.502 215.204 275.694 216.58 273.614 217.604L269.774 212.468C271.662 211.604 273.278 210.452 274.622 209.012C275.998 207.572 277.134 205.94 278.03 204.116C278.926 202.292 279.582 200.372 279.998 198.356C280.446 196.308 280.67 194.244 280.67 192.164V185.732ZM281.918 185.732H287.054V192.164C287.054 194.18 287.246 196.164 287.63 198.116C288.046 200.068 288.67 201.924 289.502 203.684C290.366 205.412 291.438 206.964 292.718 208.34C293.998 209.716 295.534 210.852 297.326 211.748L293.438 216.836C291.454 215.812 289.726 214.468 288.254 212.804C286.814 211.108 285.63 209.172 284.702 206.996C283.774 204.788 283.07 202.436 282.59 199.94C282.142 197.412 281.918 194.82 281.918 192.164V185.732ZM299.054 182.324H305.486V226.772H299.054V182.324ZM304.094 199.412H311.918V204.692H304.094V199.412Z" fill="white"/>
</g>
<defs>
<clipPath id="clip0_358_1040">
<path d="M0.849609 205.5C0.849609 92.2816 92.6312 0.5 205.85 0.5C319.068 0.5 410.85 92.2816 410.85 205.5C410.85 318.718 319.068 410.5 205.85 410.5C92.6312 410.5 0.849609 318.718 0.849609 205.5Z" fill="white"/>
</clipPath>
</defs>
</svg>
