<svg width="411" height="411" viewBox="0 0 411 411" fill="none" xmlns="http://www.w3.org/2000/svg">
<path d="M0.849609 205.5C0.849609 92.2816 92.6312 0.5 205.85 0.5C319.068 0.5 410.85 92.2816 410.85 205.5C410.85 318.718 319.068 410.5 205.85 410.5C92.6312 410.5 0.849609 318.718 0.849609 205.5Z" fill="#E992E5"/>
<path d="M368.985 63.3109H229.614C215.272 63.3109 203.596 75.0065 203.596 89.3728V278.646C195.198 274.09 185.192 271.632 174.775 271.632C161.94 271.632 149.716 275.364 140.384 282.141C130.129 289.568 124.26 300.19 124.26 311.262C124.26 322.346 130.141 332.955 140.384 340.382C149.729 347.16 161.941 350.892 174.775 350.892C187.609 350.892 199.821 347.16 209.153 340.382C219.395 332.955 225.277 322.333 225.277 311.262C225.277 310.014 225.202 308.765 225.052 307.53C225.202 306.818 225.277 306.082 225.277 305.32V141.421H373.322V239.927C364.923 235.371 354.905 232.913 344.475 232.913C331.641 232.913 319.429 236.645 310.097 243.422C299.854 250.849 293.973 261.471 293.973 272.543C293.973 283.614 299.854 294.236 310.097 301.663C319.443 308.441 331.654 312.173 344.475 312.173C357.309 312.173 369.534 308.441 378.866 301.663C389.121 294.236 394.99 283.614 394.99 272.543L395.015 89.3721C395.015 75.0055 383.339 63.3102 368.997 63.3102L368.985 63.3109ZM174.773 329.187C157.776 329.187 145.926 319.738 145.926 311.263C145.926 302.787 157.776 293.339 174.773 293.339C191.769 293.339 203.594 302.787 203.594 311.263C203.594 319.738 191.757 329.187 174.773 329.187ZM225.276 119.702V89.3591C225.276 87 227.257 85.0153 229.612 85.0153H368.984C371.339 85.0153 373.32 86.9999 373.32 89.3591V119.702H225.276ZM344.487 290.465C327.503 290.465 315.665 281.017 315.665 272.541C315.665 264.066 327.503 254.617 344.487 254.617C361.471 254.617 373.333 264.066 373.333 272.541C373.333 281.016 361.483 290.465 344.487 290.465Z" fill="#DA5DD3"/>
<path d="M97.0612 194.324H103.877V199.46H97.0612V194.324ZM89.5252 185.492C91.5092 185.492 93.2532 185.972 94.7572 186.932C96.2932 187.892 97.4932 189.22 98.3572 190.916C99.2532 192.58 99.7012 194.516 99.7012 196.724C99.7012 198.9 99.2532 200.836 98.3572 202.532C97.4932 204.228 96.2932 205.556 94.7572 206.516C93.2532 207.476 91.5092 207.956 89.5252 207.956C87.5732 207.956 85.8292 207.476 84.2932 206.516C82.7572 205.556 81.5572 204.228 80.6932 202.532C79.8292 200.836 79.3972 198.9 79.3972 196.724C79.3972 194.516 79.8292 192.58 80.6932 190.916C81.5572 189.22 82.7572 187.892 84.2932 186.932C85.8292 185.972 87.5732 185.492 89.5252 185.492ZM89.5252 191.012C88.6612 191.012 87.8932 191.236 87.2212 191.684C86.5492 192.132 86.0212 192.788 85.6372 193.652C85.2852 194.484 85.1092 195.508 85.1092 196.724C85.1092 197.94 85.2852 198.98 85.6372 199.844C86.0212 200.708 86.5492 201.364 87.2212 201.812C87.8932 202.26 88.6612 202.484 89.5252 202.484C90.3892 202.484 91.1572 202.26 91.8292 201.812C92.5012 201.364 93.0292 200.708 93.4132 199.844C93.7972 198.98 93.9892 197.94 93.9892 196.724C93.9892 195.508 93.7972 194.484 93.4132 193.652C93.0292 192.788 92.5012 192.132 91.8292 191.684C91.1572 191.236 90.3892 191.012 89.5252 191.012ZM111.029 182.324H117.125V215.348H111.029V182.324ZM102.245 183.044H108.245V214.052H102.245V183.044ZM87.1732 220.868H118.229V226.004H87.1732V220.868ZM87.1732 211.172H93.6052V223.556H87.1732V211.172ZM151.921 182.228H158.305V226.82H151.921V182.228ZM144.289 197.924H152.689V203.108H144.289V197.924ZM122.977 211.652H126.577C129.041 211.652 131.313 211.62 133.393 211.556C135.505 211.492 137.553 211.38 139.537 211.22C141.521 211.06 143.553 210.836 145.633 210.548L146.257 215.588C144.113 215.94 142.001 216.196 139.921 216.356C137.873 216.516 135.761 216.628 133.585 216.692C131.409 216.756 129.073 216.788 126.577 216.788H122.977V211.652ZM122.977 185.972H143.569V191.156H129.361V213.236H122.977V185.972ZM127.873 198.356H142.081V203.348H127.873V198.356ZM180.862 198.452H188.734V203.588H180.862V198.452ZM164.014 211.844H167.086C169.166 211.844 171.038 211.828 172.702 211.796C174.366 211.764 175.95 211.684 177.454 211.556C178.99 211.396 180.574 211.188 182.206 210.932L182.686 216.068C181.054 216.356 179.438 216.564 177.838 216.692C176.238 216.82 174.574 216.9 172.846 216.932C171.118 216.964 169.198 216.98 167.086 216.98H164.014V211.844ZM164.014 187.172H180.526V192.26H170.11V213.716H164.014V187.172ZM168.334 199.124H178.846V204.068H168.334V199.124ZM194.878 182.276H200.926V226.724H194.878V182.276ZM185.662 183.092H191.614V224.804H185.662V183.092ZM235.05 182.324H241.434V214.244H235.05V182.324ZM211.818 220.868H242.586V226.004H211.818V220.868ZM211.818 211.076H218.202V222.98H211.818V211.076ZM217.242 185.156C219.514 185.156 221.562 185.636 223.386 186.596C225.21 187.556 226.65 188.884 227.706 190.58C228.794 192.276 229.338 194.228 229.338 196.436C229.338 198.58 228.794 200.516 227.706 202.244C226.65 203.94 225.21 205.284 223.386 206.276C221.562 207.236 219.514 207.716 217.242 207.716C214.97 207.716 212.922 207.236 211.098 206.276C209.274 205.284 207.818 203.94 206.73 202.244C205.674 200.516 205.146 198.58 205.146 196.436C205.146 194.228 205.674 192.276 206.73 190.58C207.818 188.884 209.274 187.556 211.098 186.596C212.922 185.636 214.97 185.156 217.242 185.156ZM217.242 190.628C216.154 190.628 215.162 190.868 214.266 191.348C213.37 191.796 212.666 192.452 212.154 193.316C211.642 194.148 211.386 195.188 211.386 196.436C211.386 197.62 211.642 198.644 212.154 199.508C212.666 200.34 213.37 200.996 214.266 201.476C215.162 201.924 216.154 202.148 217.242 202.148C218.33 202.148 219.322 201.924 220.218 201.476C221.114 200.996 221.818 200.34 222.33 199.508C222.842 198.644 223.098 197.62 223.098 196.436C223.098 195.188 222.842 194.148 222.33 193.316C221.818 192.452 221.114 191.796 220.218 191.348C219.322 190.868 218.33 190.628 217.242 190.628ZM248.054 185.876H269.078V207.332H248.054V185.876ZM262.838 190.868H254.342V202.34H262.838V190.868ZM277.046 182.324H283.478V214.676H277.046V182.324ZM267.35 193.988H278.678V199.124H267.35V193.988ZM254.102 220.868H284.486V226.004H254.102V220.868ZM254.102 211.604H260.486V223.508H254.102V211.604ZM292.738 205.172H323.986V210.212H292.738V205.172ZM288.034 216.5H328.306V221.684H288.034V216.5ZM292.738 185.54H323.65V190.628H299.218V206.564H292.738V185.54ZM297.25 195.332H322.642V200.276H297.25V195.332Z" fill="white"/>
</svg>
