<svg width="411" height="410" viewBox="0 0 411 410" fill="none" xmlns="http://www.w3.org/2000/svg">
<path d="M0.849609 205C0.849609 91.7816 92.6312 0 205.85 0C319.068 0 410.85 91.7816 410.85 205C410.85 318.218 319.068 410 205.85 410C92.6312 410 0.849609 318.218 0.849609 205Z" fill="white"/>
<circle cx="206.643" cy="380.188" r="25" transform="rotate(180 206.643 380.188)" fill="#373535"/>
<path d="M202.893 390.853V393.949H192.648V390.853H196.13V371.657H192.648V368.629H199.613V390.853H202.893ZM223.496 375.073C223.496 376.497 223.131 377.742 222.402 378.807C221.684 379.873 220.406 381.084 218.566 382.441L216.951 383.653C215.617 384.662 214.585 385.481 213.856 386.109C213.138 386.737 212.521 387.432 212.005 388.195C211.489 388.958 211.136 389.81 210.945 390.752H220.484L220.636 384.881H223.698L223.496 393.949H207.261C207.283 391.885 207.637 390.096 208.321 388.582C209.016 387.057 209.841 385.8 210.794 384.813C211.747 383.826 212.891 382.828 214.226 381.819L216.733 379.918C217.888 379.077 218.695 378.308 219.155 377.613C219.615 376.906 219.845 376.104 219.845 375.207C219.845 373.94 219.475 372.953 218.735 372.246C218.006 371.528 216.996 371.169 215.706 371.169C214.046 371.169 212.891 371.657 212.241 372.633C211.59 373.609 211.265 375.123 211.265 377.176V378.034H207.917V377.058C207.917 374.355 208.511 372.246 209.7 370.732C210.418 369.857 211.271 369.212 212.258 368.797C213.245 368.382 214.428 368.175 215.807 368.175C217.512 368.175 218.937 368.5 220.081 369.151C221.225 369.79 222.077 370.631 222.638 371.674C223.21 372.717 223.496 373.85 223.496 375.073Z" fill="white"/>
<circle cx="161.289" cy="374.322" r="25" transform="rotate(-165 161.289 374.322)" fill="#373535"/>
<path d="M166.715 384.979V388.074H156.47V384.979H159.952V365.783H156.47V362.755H163.435V384.979H166.715Z" fill="white"/>
<circle cx="119" cy="356.916" r="25" transform="rotate(-150 119 356.916)" fill="#373535"/>
<path d="M126.459 351.763C126.459 353.187 126.094 354.432 125.365 355.498C124.648 356.563 123.369 357.774 121.53 359.132L119.915 360.343C118.58 361.352 117.548 362.171 116.819 362.799C116.101 363.427 115.484 364.123 114.968 364.885C114.453 365.648 114.099 366.5 113.909 367.442H123.448L123.599 361.571H126.661L126.459 370.639H110.224C110.247 368.575 110.6 366.786 111.284 365.272C111.979 363.747 112.804 362.491 113.757 361.504C114.71 360.517 115.854 359.518 117.189 358.509L119.696 356.608C120.851 355.767 121.659 354.998 122.118 354.303C122.578 353.597 122.808 352.795 122.808 351.897C122.808 350.63 122.438 349.643 121.698 348.936C120.969 348.219 119.959 347.86 118.67 347.86C117.01 347.86 115.854 348.348 115.204 349.323C114.553 350.299 114.228 351.813 114.228 353.866V354.724H110.88V353.748C110.88 351.045 111.475 348.936 112.664 347.422C113.381 346.547 114.234 345.902 115.221 345.488C116.208 345.073 117.391 344.865 118.771 344.865C120.475 344.865 121.9 345.19 123.044 345.841C124.188 346.48 125.04 347.321 125.601 348.364C126.173 349.407 126.459 350.54 126.459 351.763Z" fill="white"/>
<circle cx="82.6543" cy="329.16" r="25" transform="rotate(-135 82.6543 329.16)" fill="#373535"/>
<path d="M89.8696 323.774C89.8696 325.176 89.5051 326.359 88.7761 327.324C88.0583 328.289 87.2283 329.001 86.2862 329.461C87.9461 329.943 89.1462 330.7 89.8865 331.732C90.6379 332.752 91.0137 334.076 91.0137 335.702C91.0137 337.385 90.5931 338.798 89.7519 339.942C88.9219 341.086 87.8452 341.927 86.5217 342.465C85.1983 342.992 83.7907 343.256 82.299 343.256C79.5399 343.256 77.3977 342.521 75.8723 341.052C74.347 339.572 73.5843 337.306 73.5843 334.255H76.9154C76.9939 336.14 77.5211 337.609 78.4968 338.663C79.4726 339.717 80.8073 340.245 82.5009 340.245C84.015 340.245 85.2151 339.835 86.1011 339.016C86.9872 338.187 87.4302 337.115 87.4302 335.803C87.4302 334.468 86.9143 333.364 85.8824 332.489C84.8506 331.603 83.2635 331.16 81.1213 331.16C80.5942 331.16 80.2185 331.171 79.9941 331.193V328.047H80.4652C81.6204 328.047 82.613 327.969 83.443 327.812C84.2842 327.655 84.9908 327.296 85.5628 326.735C86.146 326.163 86.4376 325.316 86.4376 324.195C86.4376 323.096 86.1067 322.125 85.445 321.284C84.7945 320.443 83.8019 320.023 82.4672 320.023C81.0653 320.023 80.0278 320.443 79.3548 321.284C78.6931 322.125 78.3286 323.404 78.2613 325.12H74.7115V324.851C74.7115 322.742 75.1657 321.099 76.0742 319.922C76.9827 318.733 77.9921 317.959 79.1025 317.6C80.2241 317.241 81.2559 317.062 82.198 317.062C84.744 317.062 86.6563 317.695 87.9349 318.963C89.2247 320.219 89.8696 321.823 89.8696 323.774Z" fill="white"/>
<circle cx="54.7502" cy="292.931" r="25" transform="rotate(-120 54.7502 292.931)" fill="#373535"/>
<path d="M63.0249 296.654V299.716H58.9872V303.451H61.3089V306.546H52.9307V303.451H55.6225V299.716H47.1097C46.7845 298.594 46.2293 297.646 45.4442 296.873L56.0263 280.974H58.9872V296.654H63.0249ZM55.6225 296.654V286.661L48.9603 296.654H55.6225Z" fill="white"/>
<circle cx="37.1367" cy="250.73" r="25" transform="rotate(-105 37.1367 250.73)" fill="#373535"/>
<path d="M40.6944 245.669V242.119H32.9555L32.4003 249.639C33.892 248.394 35.6249 247.772 37.5988 247.772C39.1803 247.772 40.5542 248.153 41.7207 248.916C42.8983 249.667 43.7956 250.677 44.4124 251.944C45.0405 253.2 45.3546 254.591 45.3546 256.116C45.3546 257.81 45.0013 259.307 44.2947 260.608C43.5993 261.909 42.5899 262.919 41.2664 263.637C39.9429 264.343 38.4008 264.696 36.6399 264.696C34.0603 264.696 32.0302 263.967 30.5497 262.509C29.0692 261.04 28.2505 258.932 28.0935 256.184H31.3573C31.5704 257.922 32.1368 259.285 33.0565 260.272C33.9761 261.259 35.1818 261.752 36.6735 261.752C38.1652 261.752 39.3822 261.242 40.3243 260.221C41.2664 259.201 41.7375 257.855 41.7375 256.184C41.7375 254.456 41.2945 253.127 40.4084 252.196C39.5224 251.266 38.3896 250.8 37.01 250.8C34.9912 250.8 33.3032 251.826 31.9461 253.879C31.1946 253.139 30.3142 252.505 29.3048 251.978L30.331 238.956H43.8404V245.669H40.6944Z" fill="white"/>
<circle cx="31.0645" cy="205.405" r="25" transform="rotate(-90 31.0645 205.405)" fill="#373535"/>
<path d="M38.6125 200.991H35.5506C35.3824 199.611 34.8889 198.45 34.0701 197.508C33.2626 196.566 32.2363 196.095 30.9914 196.095C29.4099 196.095 28.165 196.931 27.2565 198.602C26.348 200.262 25.8714 202.572 25.8265 205.533C27.5986 203.682 29.5894 202.757 31.7989 202.757C33.0326 202.757 34.1823 203.06 35.2478 203.666C36.3245 204.271 37.1881 205.163 37.8386 206.341C38.4891 207.507 38.8144 208.903 38.8144 210.53C38.8144 212.145 38.5172 213.62 37.9227 214.954C37.3283 216.278 36.4535 217.332 35.2982 218.117C34.1542 218.902 32.7915 219.295 31.2101 219.295C29.5053 219.295 27.9968 218.835 26.6845 217.915C25.3835 216.996 24.3572 215.582 23.6058 213.676C22.8655 211.769 22.4954 209.391 22.4954 206.543C22.4954 202.337 23.2581 199.045 24.7834 196.667C26.3088 194.289 28.5183 193.1 31.412 193.1C33.6215 193.1 35.3543 193.835 36.6105 195.304C37.8779 196.774 38.5452 198.669 38.6125 200.991ZM31.0587 216.25C32.4606 216.25 33.571 215.739 34.3898 214.719C35.2085 213.698 35.6179 212.42 35.6179 210.883C35.6179 209.481 35.2422 208.326 34.4907 207.417C33.7505 206.509 32.713 206.055 31.3783 206.055C29.5614 206.055 27.7668 207.171 25.9947 209.403C26.5555 213.967 28.2435 216.25 31.0587 216.25Z" fill="white"/>
<path d="M352.713 150.211V161.148H359.439V166.945H352.713V177.5H345.713V150.211H352.713ZM322.252 152.617V169.352C328.268 169.242 334.748 168.695 341.666 167.273L342.486 172.961C334.283 174.656 326.572 175.148 319.518 175.148H315.252V152.617H322.252ZM353.314 179.633V185.156H340.354C341.146 189.039 346.15 193.25 355.502 194.398L352.877 199.703C344.975 198.637 339.424 195.383 336.635 191.117C333.791 195.41 328.213 198.527 320.338 199.594L317.658 194.289C327.064 193.25 331.959 189.148 332.752 185.156H319.791V179.633H353.314ZM168.307 220.719V249H162.408V226.305H162.252L155.768 230.367V225.172L162.76 220.719H168.307ZM172.869 249L172.83 244.742L182.986 235.406C185.643 232.867 187.049 231.305 187.049 229.078C187.049 226.578 185.135 225.016 182.557 225.016C179.9 225.016 178.182 226.695 178.182 229.391H172.596C172.557 223.844 176.658 220.328 182.635 220.328C188.689 220.328 192.713 223.766 192.713 228.688C192.713 231.891 191.15 234.547 185.33 239.82L181.033 244V244.156H193.104V249H172.869ZM195.322 256.969V227.789H201.025V231.344H201.26C202.041 229.625 203.76 227.516 207.314 227.516C212.002 227.516 215.908 231.148 215.908 238.414C215.908 245.484 212.158 249.352 207.314 249.352C203.838 249.352 202.08 247.359 201.26 245.602H201.104V256.969H195.322ZM200.986 238.375C200.986 242.203 202.627 244.742 205.479 244.742C208.447 244.742 210.01 242.125 210.01 238.375C210.01 234.664 208.447 232.125 205.479 232.125C202.588 232.125 200.986 234.547 200.986 238.375ZM217.658 249V227.789H223.166V231.5H223.4C224.299 229.039 226.447 227.516 229.299 227.516C232.229 227.516 234.377 229.039 235.08 231.5H235.275C236.174 229.078 238.557 227.516 241.682 227.516C245.627 227.516 248.361 230.133 248.361 234.742V249H242.58V235.875C242.58 233.453 241.174 232.281 239.26 232.281C237.072 232.281 235.822 233.805 235.822 236.031V249H230.197V235.719C230.197 233.609 228.869 232.281 226.916 232.281C224.963 232.281 223.439 233.844 223.439 236.266V249H217.658ZM271.197 235.055V239.664H258.307V235.055H271.197ZM292.119 249.391C286.26 249.352 280.713 245.875 280.713 235.523C280.713 225.992 285.283 220.328 292.354 220.328C298.057 220.328 301.924 223.922 302.51 228.57H296.729C296.26 226.578 294.619 225.367 292.354 225.367C288.525 225.367 286.494 228.844 286.455 234.391H286.729C288.018 231.891 290.83 230.406 293.955 230.406C299.033 230.406 302.822 234.234 302.822 239.547C302.822 245.289 298.486 249.43 292.119 249.391ZM292.08 244.742C294.971 244.742 297.119 242.555 297.119 239.703C297.119 236.891 295.049 234.664 292.158 234.664C289.268 234.664 287.08 236.93 287.041 239.703C287.08 242.477 289.189 244.742 292.08 244.742ZM304.924 256.969V227.789H310.627V231.344H310.861C311.643 229.625 313.361 227.516 316.916 227.516C321.604 227.516 325.51 231.148 325.51 238.414C325.51 245.484 321.76 249.352 316.916 249.352C313.439 249.352 311.682 247.359 310.861 245.602H310.705V256.969H304.924ZM310.588 238.375C310.588 242.203 312.229 244.742 315.08 244.742C318.049 244.742 319.611 242.125 319.611 238.375C319.611 234.664 318.049 232.125 315.08 232.125C312.189 232.125 310.588 234.547 310.588 238.375ZM327.26 249V227.789H332.768V231.5H333.002C333.9 229.039 336.049 227.516 338.9 227.516C341.83 227.516 343.979 229.039 344.682 231.5H344.877C345.775 229.078 348.158 227.516 351.283 227.516C355.229 227.516 357.963 230.133 357.963 234.742V249H352.182V235.875C352.182 233.453 350.775 232.281 348.861 232.281C346.674 232.281 345.424 233.805 345.424 236.031V249H339.799V235.719C339.799 233.609 338.471 232.281 336.518 232.281C334.564 232.281 333.041 233.844 333.041 236.266V249H327.26Z" fill="#373535"/>
</svg>
