<svg width="411" height="410" viewBox="0 0 411 410" fill="none" xmlns="http://www.w3.org/2000/svg">
<path d="M0.849609 205C0.849609 91.7816 92.6312 0 205.85 0C319.068 0 410.85 91.7816 410.85 205C410.85 318.218 319.068 410 205.85 410C92.6312 410 0.849609 318.218 0.849609 205Z" fill="white"/>
<circle cx="207.734" cy="32.1077" r="25" fill="#373535"/>
<path d="M202.312 42.2312V45.2877H192.196V42.2312H195.634V23.2776H192.196V20.2875H199.073V42.2312H202.312ZM222.654 26.6497C222.654 28.0561 222.294 29.2854 221.574 30.3374C220.866 31.3895 219.603 32.5855 217.787 33.9255L216.192 35.1215C214.875 36.1182 213.856 36.9266 213.136 37.5468C212.427 38.167 211.818 38.8536 211.309 39.6066C210.799 40.3597 210.45 41.2013 210.262 42.1316H219.681L219.83 36.3342H222.854L222.654 45.2877H206.624C206.646 43.2501 206.995 41.4837 207.671 39.9887C208.357 38.4826 209.171 37.2423 210.113 36.2677C211.054 35.2932 212.183 34.3076 213.501 33.3109L215.976 31.4338C217.117 30.6032 217.914 29.8446 218.368 29.158C218.823 28.4604 219.05 27.6685 219.05 26.7826C219.05 25.5312 218.684 24.5567 217.953 23.859C217.233 23.1502 216.237 22.7959 214.963 22.7959C213.324 22.7959 212.183 23.2776 211.541 24.2411C210.899 25.2045 210.578 26.6995 210.578 28.7261V29.5733H207.272V28.6099C207.272 25.941 207.859 23.859 209.033 22.364C209.742 21.5002 210.583 20.8634 211.558 20.4537C212.532 20.0439 213.701 19.839 215.063 19.839C216.746 19.839 218.153 20.1602 219.282 20.8025C220.412 21.4337 221.253 22.2643 221.807 23.2942C222.372 24.3241 222.654 25.4426 222.654 26.6497Z" fill="white"/>
<circle cx="251.203" cy="36.0891" r="25" transform="rotate(15 251.203 36.0891)" fill="#373535"/>
<path d="M256.78 46.1834V49.2789H246.534V46.1834H250.017V26.9875H246.534V23.9593H253.499V46.1834H256.78Z" fill="white"/>
<circle cx="293.494" cy="53.4941" r="25" transform="rotate(30 293.494 53.4941)" fill="#373535"/>
<path d="M301.242 47.8368C301.242 49.2612 300.878 50.5062 300.149 51.5717C299.431 52.6372 298.152 53.8485 296.313 55.2056L294.698 56.4169C293.363 57.4263 292.331 58.2451 291.602 58.8732C290.884 59.5013 290.268 60.1966 289.752 60.9593C289.236 61.722 288.882 62.5744 288.692 63.5165H298.231L298.382 57.645H301.444L301.242 66.713H285.007C285.03 64.6493 285.383 62.8604 286.067 61.3463C286.763 59.8209 287.587 58.5647 288.54 57.5778C289.494 56.5908 290.638 55.5926 291.972 54.5831L294.479 52.6821C295.634 51.8409 296.442 51.0726 296.902 50.3772C297.362 49.6706 297.591 48.8687 297.591 47.9714C297.591 46.704 297.221 45.7171 296.481 45.0105C295.752 44.2926 294.743 43.9337 293.453 43.9337C291.793 43.9337 290.638 44.4216 289.987 45.3974C289.337 46.3732 289.011 47.8873 289.011 49.9398V50.7978H285.663V49.822C285.663 47.119 286.258 45.0105 287.447 43.4963C288.165 42.6215 289.017 41.9766 290.004 41.5616C290.991 41.1466 292.174 40.9391 293.554 40.9391C295.259 40.9391 296.683 41.2644 297.827 41.9149C298.971 42.5542 299.823 43.3954 300.384 44.4385C300.956 45.4815 301.242 46.6143 301.242 47.8368Z" fill="white"/>
<circle cx="329.838" cy="81.2517" r="25" transform="rotate(45 329.838 81.2517)" fill="#373535"/>
<path d="M337.461 75.4555C337.461 76.8575 337.097 78.0407 336.368 79.0053C335.65 79.9698 334.82 80.682 333.878 81.1419C335.538 81.6242 336.738 82.3812 337.478 83.4131C338.23 84.4337 338.605 85.7572 338.605 87.3835C338.605 89.0658 338.185 90.479 337.344 91.623C336.514 92.7671 335.437 93.6082 334.114 94.1466C332.79 94.6737 331.382 94.9373 329.891 94.9373C327.132 94.9373 324.989 94.2027 323.464 92.7334C321.939 91.2529 321.176 88.9873 321.176 85.9366H324.507C324.586 87.8209 325.113 89.2902 326.089 90.3444C327.064 91.3987 328.399 91.9259 330.093 91.9259C331.607 91.9259 332.807 91.5165 333.693 90.6977C334.579 89.8678 335.022 88.7967 335.022 87.4844C335.022 86.1497 334.506 85.045 333.474 84.1702C332.442 83.2841 330.855 82.8411 328.713 82.8411C328.186 82.8411 327.81 82.8523 327.586 82.8747V79.7287H328.057C329.212 79.7287 330.205 79.6502 331.035 79.4932C331.876 79.3361 332.583 78.9772 333.155 78.4165C333.738 77.8444 334.029 76.9977 334.029 75.8761C334.029 74.7769 333.699 73.8068 333.037 72.9656C332.386 72.1244 331.394 71.7038 330.059 71.7038C328.657 71.7038 327.62 72.1244 326.947 72.9656C326.285 73.8068 325.92 75.0854 325.853 76.8014H322.303V76.5322C322.303 74.4236 322.758 72.7805 323.666 71.6029C324.574 70.414 325.584 69.6401 326.694 69.2812C327.816 68.9223 328.848 68.7428 329.79 68.7428C332.336 68.7428 334.248 69.3765 335.527 70.6439C336.817 71.9001 337.461 73.5039 337.461 75.4555Z" fill="white"/>
<circle cx="357.744" cy="117.479" r="25" transform="rotate(60 357.744 117.479)" fill="#373535"/>
<path d="M366.523 120.912V123.974H362.485V127.709H364.807V130.805H356.429V127.709H359.121V123.974H350.608C350.283 122.853 349.727 121.905 348.942 121.131L359.524 105.233H362.485V120.912H366.523ZM359.121 120.912V110.919L352.458 120.912H359.121Z" fill="white"/>
<circle cx="375.356" cy="159.681" r="25" transform="rotate(75 375.356 159.681)" fill="#373535"/>
<path d="M379.474 154.469V150.919H371.735L371.18 158.44C372.671 157.195 374.404 156.572 376.378 156.572C377.96 156.572 379.334 156.953 380.5 157.716C381.678 158.468 382.575 159.477 383.192 160.744C383.82 162.001 384.134 163.391 384.134 164.917C384.134 166.61 383.781 168.108 383.074 169.409C382.379 170.71 381.369 171.719 380.046 172.437C378.722 173.143 377.18 173.497 375.419 173.497C372.84 173.497 370.81 172.768 369.329 171.31C367.849 169.84 367.03 167.732 366.873 164.984H370.137C370.35 166.722 370.916 168.085 371.836 169.072C372.755 170.059 373.961 170.553 375.453 170.553C376.945 170.553 378.161 170.042 379.104 169.022C380.046 168.001 380.517 166.655 380.517 164.984C380.517 163.257 380.074 161.928 379.188 160.997C378.302 160.066 377.169 159.6 375.789 159.6C373.77 159.6 372.082 160.627 370.725 162.679C369.974 161.939 369.093 161.305 368.084 160.778L369.11 147.757H382.62V154.469H379.474Z" fill="white"/>
<path d="M68.8672 162.625C68.8672 171.156 71.2188 179.25 78.2188 182.969L74.1172 188.492C69.7969 186.141 67.0078 182.121 65.3672 177.172C63.5898 182.668 60.6094 187.262 56.125 189.969L51.75 184.883C59.2422 180.398 62.0312 171.539 62.0859 163.117V154.531H68.8672V162.625ZM95.8281 150.266V200.031H89.1562V175.258H84.8359V197.734H78.2734V150.977H84.8359V169.68H89.1562V150.266H95.8281ZM107.411 153.164V160.219H117.2V153.164H124.091V157.594H133.278V150.266H140.223V179.961H133.278V173.453H124.091V177.664H100.411V153.164H107.411ZM107.411 172.031H117.2V165.578H107.411V172.031ZM140.223 182.094V200.031H133.278V187.672H106.044V182.094H140.223ZM124.091 167.82H133.278V163.172H124.091V167.82ZM65.6172 220.719V249H59.7188V226.305H59.5625L53.0781 230.367V225.172L60.0703 220.719H65.6172ZM70.1797 249L70.1406 244.742L80.2969 235.406C82.9531 232.867 84.3594 231.305 84.3594 229.078C84.3594 226.578 82.4453 225.016 79.8672 225.016C77.2109 225.016 75.4922 226.695 75.4922 229.391H69.9062C69.8672 223.844 73.9688 220.328 79.9453 220.328C86 220.328 90.0234 223.766 90.0234 228.688C90.0234 231.891 88.4609 234.547 82.6406 239.82L78.3438 244V244.156H90.4141V249H70.1797ZM91.6172 243.062C91.6172 238.336 95.4453 236.773 99.5078 236.539C101.031 236.441 103.883 236.305 104.781 236.266V234.547C104.742 232.789 103.531 231.734 101.383 231.734C99.4297 231.734 98.1797 232.633 97.8672 234.078H92.3594C92.7109 230.406 95.9141 227.516 101.539 227.516C106.148 227.516 110.523 229.586 110.523 234.703V249H105.055V246.07H104.898C103.844 248.023 101.852 249.391 98.6875 249.391C94.625 249.391 91.6172 247.281 91.6172 243.062ZM97.1641 242.906C97.1641 244.547 98.4922 245.406 100.328 245.406C102.945 245.406 104.82 243.648 104.781 241.422V239.859C103.902 239.898 101.441 240.035 100.445 240.133C98.4531 240.328 97.1641 241.266 97.1641 242.906ZM112.938 249V227.789H118.445V231.5H118.68C119.578 229.039 121.727 227.516 124.578 227.516C127.508 227.516 129.656 229.039 130.359 231.5H130.555C131.453 229.078 133.836 227.516 136.961 227.516C140.906 227.516 143.641 230.133 143.641 234.742V249H137.859V235.875C137.859 233.453 136.453 232.281 134.539 232.281C132.352 232.281 131.102 233.805 131.102 236.031V249H125.477V235.719C125.477 233.609 124.148 232.281 122.195 232.281C120.242 232.281 118.719 233.844 118.719 236.266V249H112.938ZM166.477 235.055V239.664H153.586V235.055H166.477ZM186.852 249.391C180.953 249.391 176.656 245.914 176.539 241.031H182.242C182.359 243.258 184.391 244.742 186.852 244.742C189.781 244.742 191.852 242.672 191.852 239.742C191.852 236.734 189.742 234.664 186.773 234.625C184.664 234.625 183.18 235.406 182.32 237.008H177.008L178.531 220.719H195.953V225.523H183.375L182.594 232.672H182.828C183.883 231.266 185.992 230.289 188.492 230.289C193.688 230.289 197.555 234.156 197.555 239.586C197.555 245.289 193.219 249.391 186.852 249.391ZM198.562 243.062C198.562 238.336 202.391 236.773 206.453 236.539C207.977 236.441 210.828 236.305 211.727 236.266V234.547C211.688 232.789 210.477 231.734 208.328 231.734C206.375 231.734 205.125 232.633 204.812 234.078H199.305C199.656 230.406 202.859 227.516 208.484 227.516C213.094 227.516 217.469 229.586 217.469 234.703V249H212V246.07H211.844C210.789 248.023 208.797 249.391 205.633 249.391C201.57 249.391 198.562 247.281 198.562 243.062ZM204.109 242.906C204.109 244.547 205.438 245.406 207.273 245.406C209.891 245.406 211.766 243.648 211.727 241.422V239.859C210.848 239.898 208.387 240.035 207.391 240.133C205.398 240.328 204.109 241.266 204.109 242.906ZM219.883 249V227.789H225.391V231.5H225.625C226.523 229.039 228.672 227.516 231.523 227.516C234.453 227.516 236.602 229.039 237.305 231.5H237.5C238.398 229.078 240.781 227.516 243.906 227.516C247.852 227.516 250.586 230.133 250.586 234.742V249H244.805V235.875C244.805 233.453 243.398 232.281 241.484 232.281C239.297 232.281 238.047 233.805 238.047 236.031V249H232.422V235.719C232.422 233.609 231.094 232.281 229.141 232.281C227.188 232.281 225.664 233.844 225.664 236.266V249H219.883Z" fill="#373535"/>
</svg>
