<svg width="411" height="411" viewBox="0 0 411 411" fill="none" xmlns="http://www.w3.org/2000/svg">
<path d="M0.849609 205.5C0.849609 92.2816 92.6312 0.5 205.85 0.5C319.068 0.5 410.85 92.2816 410.85 205.5C410.85 318.718 319.068 410.5 205.85 410.5C92.6312 410.5 0.849609 318.718 0.849609 205.5Z" fill="white"/>
<circle cx="381.426" cy="205.508" r="25" transform="rotate(90 381.426 205.508)" fill="#373535"/>
<path d="M389.556 201.095H386.494C386.326 199.715 385.832 198.554 385.013 197.612C384.206 196.67 383.18 196.199 381.935 196.199C380.353 196.199 379.108 197.035 378.2 198.706C377.291 200.366 376.815 202.676 376.77 205.637C378.542 203.786 380.533 202.861 382.742 202.861C383.976 202.861 385.126 203.164 386.191 203.77C387.268 204.375 388.131 205.267 388.782 206.445C389.432 207.611 389.758 209.007 389.758 210.634C389.758 212.249 389.461 213.724 388.866 215.058C388.272 216.382 387.397 217.436 386.242 218.221C385.098 219.006 383.735 219.399 382.153 219.399C380.449 219.399 378.94 218.939 377.628 218.019C376.327 217.1 375.301 215.686 374.549 213.78C373.809 211.873 373.439 209.495 373.439 206.647C373.439 202.441 374.201 199.149 375.727 196.771C377.252 194.393 379.462 193.204 382.355 193.204C384.565 193.204 386.298 193.939 387.554 195.408C388.821 196.878 389.489 198.773 389.556 201.095ZM382.002 216.354C383.404 216.354 384.514 215.843 385.333 214.823C386.152 213.802 386.561 212.524 386.561 210.987C386.561 209.585 386.186 208.43 385.434 207.521C384.694 206.613 383.656 206.159 382.322 206.159C380.505 206.159 378.71 207.275 376.938 209.507C377.499 214.071 379.187 216.354 382.002 216.354Z" fill="white"/>
<circle cx="375.559" cy="250.861" r="25" transform="rotate(105 375.559 250.861)" fill="#373535"/>
<path d="M376.869 261.244V261.312H379.83V264.407H369.803V261.312H373.168C373.426 257.913 374.144 254.577 375.321 251.302C376.51 248.027 378.013 245.01 379.83 242.25H371.065V245.733H367.936V239.088H383.784V241.662C382.55 243.254 381.395 245.239 380.318 247.617C379.253 249.995 378.411 252.406 377.795 254.851C377.178 257.296 376.869 259.427 376.869 261.244Z" fill="white"/>
<ellipse cx="358.184" cy="293.167" rx="25" ry="24.9479" transform="rotate(120 358.184 293.167)" fill="#373535"/>
<path d="M366.515 287.655C366.513 290.089 365.261 292.047 362.758 293.53C365.786 294.716 367.298 296.8 367.295 299.784C367.294 301.276 366.945 302.583 366.249 303.705C365.552 304.816 364.548 305.68 363.235 306.298C361.922 306.905 360.368 307.209 358.574 307.211C355.938 307.213 353.774 306.604 352.082 305.383C350.4 304.162 349.561 302.301 349.563 299.8C349.566 296.816 351.07 294.729 354.077 293.537C351.6 292.115 350.362 290.148 350.365 287.636C350.366 286.211 350.726 285 351.445 284.001C352.175 283.002 353.134 282.255 354.324 281.761C355.524 281.266 356.837 281.018 358.261 281.017C360.762 281.015 362.764 281.613 364.265 282.812C365.767 283.999 366.517 285.613 366.515 287.655ZM358.52 292.12C359.72 292.119 360.78 291.798 361.701 291.158C362.621 290.507 363.082 289.48 363.083 288.078C363.084 286.699 362.693 285.684 361.908 285.034C361.124 284.373 359.929 284.044 358.326 284.045C356.901 284.046 355.785 284.401 354.977 285.108C354.18 285.804 353.781 286.775 353.78 288.019C353.778 289.354 354.192 290.374 355.022 291.08C355.862 291.775 357.028 292.122 358.52 292.12ZM358.442 304.233C359.911 304.232 361.134 303.821 362.111 303.002C363.087 302.171 363.576 301.055 363.577 299.653C363.578 298.273 363.136 297.169 362.251 296.34C361.377 295.499 360.065 295.08 358.316 295.081C356.801 295.083 355.579 295.504 354.647 296.346C353.715 297.177 353.249 298.282 353.248 299.662C353.246 301.041 353.722 302.151 354.675 302.992C355.627 303.821 356.883 304.235 358.442 304.233Z" fill="white"/>
<circle cx="330.397" cy="329.495" r="25" transform="rotate(135 330.397 329.495)" fill="#373535"/>
<path d="M338.544 330.218C338.544 334.424 337.775 337.704 336.239 340.059C334.702 342.415 332.509 343.592 329.661 343.592C327.474 343.592 325.741 342.88 324.462 341.456C323.195 340.031 322.505 338.102 322.393 335.669H325.455C325.657 337.183 326.156 338.383 326.952 339.269C327.748 340.144 328.718 340.581 329.863 340.581C331.545 340.581 332.852 339.717 333.782 337.99C334.725 336.252 335.196 333.969 335.196 331.143C333.48 333.005 331.506 333.936 329.274 333.936C327.939 333.936 326.739 333.616 325.673 332.977C324.608 332.326 323.761 331.407 323.133 330.218C322.516 329.018 322.208 327.638 322.208 326.079C322.208 324.52 322.505 323.079 323.099 321.755C323.705 320.432 324.58 319.378 325.724 318.592C326.879 317.796 328.247 317.398 329.829 317.398C332.476 317.398 334.59 318.475 336.171 320.628C337.753 322.77 338.544 325.967 338.544 330.218ZM329.661 330.638C331.5 330.638 333.289 329.522 335.027 327.29C334.758 324.991 334.209 323.275 333.379 322.142C332.549 320.998 331.399 320.426 329.93 320.426C328.595 320.426 327.507 320.937 326.666 321.957C325.836 322.967 325.421 324.251 325.421 325.81C325.421 327.189 325.78 328.339 326.498 329.259C327.227 330.178 328.281 330.638 329.661 330.638Z" fill="white"/>
<circle cx="294.177" cy="357.417" r="25" transform="rotate(150 294.177 357.417)" fill="#373535"/>
<path d="M290.577 368.044V371.14H280.331V368.044H283.814V348.848H280.331V345.82H287.296V368.044H290.577ZM312.34 358.488C312.34 361.247 311.981 363.608 311.263 365.571C310.557 367.534 309.547 369.025 308.235 370.046C306.934 371.056 305.386 371.56 303.592 371.56C300.743 371.56 298.562 370.383 297.047 368.027C295.533 365.672 294.776 362.492 294.776 358.488C294.776 355.718 295.13 353.351 295.836 351.389C296.554 349.415 297.575 347.917 298.898 346.897C300.233 345.876 301.797 345.366 303.592 345.366C306.396 345.366 308.555 346.538 310.069 348.882C311.583 351.226 312.34 354.428 312.34 358.488ZM303.592 368.582C305.252 368.582 306.508 367.797 307.36 366.227C308.224 364.657 308.656 362.032 308.656 358.354C308.656 354.709 308.213 352.129 307.327 350.615C306.441 349.089 305.185 348.327 303.558 348.327C301.809 348.327 300.524 349.179 299.706 350.884C298.898 352.578 298.494 355.112 298.494 358.488C298.494 362.032 298.921 364.601 299.773 366.193C300.625 367.786 301.898 368.582 303.592 368.582Z" fill="white"/>
<circle cx="251.967" cy="375.013" r="25" transform="rotate(165 251.967 375.013)" fill="#373535"/>
<path d="M248.296 385.669V388.765H238.05V385.669H241.533V366.474H238.05V363.445H245.015V385.669H248.296ZM266.795 385.669V388.765H256.55V385.669H260.032V366.474H256.55V363.445H263.515V385.669H266.795Z" fill="white"/>
<circle cx="206.643" cy="381.085" r="25" transform="rotate(180 206.643 381.085)" fill="#373535"/>
<path d="M202.893 391.751V394.846H192.648V391.751H196.13V372.555H192.648V369.527H199.613V391.751H202.893ZM223.496 375.97C223.496 377.395 223.131 378.64 222.402 379.705C221.684 380.771 220.406 381.982 218.566 383.339L216.951 384.55C215.617 385.56 214.585 386.379 213.856 387.007C213.138 387.635 212.521 388.33 212.005 389.093C211.489 389.855 211.136 390.708 210.945 391.65H220.484L220.636 385.778H223.698L223.496 394.846H207.261C207.283 392.783 207.637 390.994 208.321 389.48C209.016 387.954 209.841 386.698 210.794 385.711C211.747 384.724 212.891 383.726 214.226 382.717L216.733 380.815C217.888 379.974 218.695 379.206 219.155 378.511C219.615 377.804 219.845 377.002 219.845 376.105C219.845 374.837 219.475 373.85 218.735 373.144C218.006 372.426 216.996 372.067 215.706 372.067C214.046 372.067 212.891 372.555 212.241 373.531C211.59 374.507 211.265 376.021 211.265 378.073V378.931H207.917V377.955C207.917 375.252 208.511 373.144 209.7 371.63C210.418 370.755 211.271 370.11 212.258 369.695C213.245 369.28 214.428 369.073 215.807 369.073C217.512 369.073 218.937 369.398 220.081 370.048C221.225 370.688 222.077 371.529 222.638 372.572C223.21 373.615 223.496 374.748 223.496 375.97Z" fill="white"/>
<circle cx="377.254" cy="160.181" r="25" transform="rotate(75 377.254 160.181)" fill="#373535"/>
<path d="M381.372 154.969V151.419H373.633L373.078 158.94C374.57 157.695 376.303 157.072 378.277 157.072C379.858 157.072 381.232 157.453 382.398 158.216C383.576 158.968 384.473 159.977 385.09 161.244C385.718 162.501 386.032 163.891 386.032 165.417C386.032 167.11 385.679 168.608 384.972 169.909C384.277 171.21 383.268 172.219 381.944 172.937C380.621 173.643 379.079 173.997 377.318 173.997C374.738 173.997 372.708 173.268 371.227 171.81C369.747 170.34 368.928 168.232 368.771 165.484H372.035C372.248 167.222 372.814 168.585 373.734 169.572C374.654 170.559 375.86 171.053 377.351 171.053C378.843 171.053 380.06 170.542 381.002 169.522C381.944 168.501 382.415 167.155 382.415 165.484C382.415 163.757 381.972 162.428 381.086 161.497C380.2 160.566 379.067 160.1 377.688 160.1C375.669 160.1 373.981 161.127 372.624 163.179C371.872 162.439 370.992 161.805 369.983 161.278L371.009 148.257H384.518V154.969H381.372Z" fill="white"/>
<path d="M73.3008 150.766C80.9023 150.766 86.3711 157.656 86.4258 168.484C86.3711 179.422 80.9023 186.258 73.3008 186.258C65.6992 186.258 60.1211 179.422 60.1758 168.484C60.1211 157.656 65.6992 150.766 73.3008 150.766ZM73.3008 157.055C69.4727 157.055 66.9023 161.102 66.9023 168.484C66.9023 175.922 69.4727 179.914 73.3008 179.914C77.1836 179.914 79.6992 175.922 79.7539 168.484C79.6992 161.102 77.1836 157.055 73.3008 157.055ZM99.168 147.266V166.023H106.496V171.82H99.168V197.031H92.168V147.266H99.168ZM135.032 152.242V157.711H124.86C125.024 162.77 128.852 167.938 136.837 169.906L133.61 175.375C127.841 173.871 123.794 170.645 121.47 166.516C119.227 171.082 115.153 174.637 109.22 176.305L105.993 170.945C113.868 168.648 117.614 163.207 117.805 157.711H107.634V152.242H117.805V147.102H124.915V152.242H135.032ZM147.173 147.32V176.469H140.173V147.32H147.173ZM147.173 178.547V196.484H113.813V178.547H147.173ZM120.704 184.125V190.906H140.337V184.125H120.704ZM71.043 246.391C65.1445 246.391 60.8477 242.914 60.7305 238.031H66.4336C66.5508 240.258 68.582 241.742 71.043 241.742C73.9727 241.742 76.043 239.672 76.043 236.742C76.043 233.734 73.9336 231.664 70.9648 231.625C68.8555 231.625 67.3711 232.406 66.5117 234.008H61.1992L62.7227 217.719H80.1445V222.523H67.5664L66.7852 229.672H67.0195C68.0742 228.266 70.1836 227.289 72.6836 227.289C77.8789 227.289 81.7461 231.156 81.7461 236.586C81.7461 242.289 77.4102 246.391 71.043 246.391ZM82.7539 240.062C82.7539 235.336 86.582 233.773 90.6445 233.539C92.168 233.441 95.0195 233.305 95.918 233.266V231.547C95.8789 229.789 94.668 228.734 92.5195 228.734C90.5664 228.734 89.3164 229.633 89.0039 231.078H83.4961C83.8477 227.406 87.0508 224.516 92.6758 224.516C97.2852 224.516 101.66 226.586 101.66 231.703V246H96.1914V243.07H96.0352C94.9805 245.023 92.9883 246.391 89.8242 246.391C85.7617 246.391 82.7539 244.281 82.7539 240.062ZM88.3008 239.906C88.3008 241.547 89.6289 242.406 91.4648 242.406C94.082 242.406 95.957 240.648 95.918 238.422V236.859C95.0391 236.898 92.5781 237.035 91.582 237.133C89.5898 237.328 88.3008 238.266 88.3008 239.906ZM104.074 246V224.789H109.582V228.5H109.816C110.715 226.039 112.863 224.516 115.715 224.516C118.645 224.516 120.793 226.039 121.496 228.5H121.691C122.59 226.078 124.973 224.516 128.098 224.516C132.043 224.516 134.777 227.133 134.777 231.742V246H128.996V232.875C128.996 230.453 127.59 229.281 125.676 229.281C123.488 229.281 122.238 230.805 122.238 233.031V246H116.613V232.719C116.613 230.609 115.285 229.281 113.332 229.281C111.379 229.281 109.855 230.844 109.855 233.266V246H104.074ZM157.613 232.055V236.664H144.723V232.055H157.613ZM179.785 217.719V246H173.887V223.305H173.73L167.246 227.367V222.172L174.238 217.719H179.785ZM184.348 246L184.309 241.742L194.465 232.406C197.121 229.867 198.527 228.305 198.527 226.078C198.527 223.578 196.613 222.016 194.035 222.016C191.379 222.016 189.66 223.695 189.66 226.391H184.074C184.035 220.844 188.137 217.328 194.113 217.328C200.168 217.328 204.191 220.766 204.191 225.688C204.191 228.891 202.629 231.547 196.809 236.82L192.512 241V241.156H204.582V246H184.348ZM206.801 253.969V224.789H212.504V228.344H212.738C213.52 226.625 215.238 224.516 218.793 224.516C223.48 224.516 227.387 228.148 227.387 235.414C227.387 242.484 223.637 246.352 218.793 246.352C215.316 246.352 213.559 244.359 212.738 242.602H212.582V253.969H206.801ZM212.465 235.375C212.465 239.203 214.105 241.742 216.957 241.742C219.926 241.742 221.488 239.125 221.488 235.375C221.488 231.664 219.926 229.125 216.957 229.125C214.066 229.125 212.465 231.547 212.465 235.375ZM229.137 246V224.789H234.645V228.5H234.879C235.777 226.039 237.926 224.516 240.777 224.516C243.707 224.516 245.855 226.039 246.559 228.5H246.754C247.652 226.078 250.035 224.516 253.16 224.516C257.105 224.516 259.84 227.133 259.84 231.742V246H254.059V232.875C254.059 230.453 252.652 229.281 250.738 229.281C248.551 229.281 247.301 230.805 247.301 233.031V246H241.676V232.719C241.676 230.609 240.348 229.281 238.395 229.281C236.441 229.281 234.918 230.844 234.918 233.266V246H229.137Z" fill="#373535"/>
</svg>
