<svg width="411" height="410" viewBox="0 0 411 410" fill="none" xmlns="http://www.w3.org/2000/svg">
<path d="M0.849609 205C0.849609 91.7816 92.6312 0 205.85 0C319.068 0 410.85 91.7816 410.85 205C410.85 318.218 319.068 410 205.85 410C92.6312 410 0.849609 318.218 0.849609 205Z" fill="white"/>
<circle cx="31.4629" cy="205.405" r="25" transform="rotate(-90 31.4629 205.405)" fill="#373535"/>
<path d="M39.0148 200.991H35.9529C35.7847 199.611 35.2912 198.45 34.4725 197.508C33.6649 196.566 32.6387 196.095 31.3937 196.095C29.8123 196.095 28.5673 196.931 27.6589 198.602C26.7504 200.262 26.2737 202.572 26.2288 205.533C28.0009 203.682 29.9917 202.757 32.2013 202.757C33.435 202.757 34.5846 203.06 35.6501 203.666C36.7268 204.271 37.5904 205.163 38.241 206.341C38.8915 207.507 39.2167 208.903 39.2167 210.53C39.2167 212.145 38.9195 213.62 38.3251 214.954C37.7306 216.278 36.8558 217.332 35.7006 218.117C34.5566 218.902 33.1939 219.295 31.6124 219.295C29.9076 219.295 28.3991 218.835 27.0869 217.915C25.7858 216.996 24.7596 215.582 24.0081 213.676C23.2679 211.769 22.8978 209.391 22.8978 206.543C22.8978 202.337 23.6604 199.045 25.1858 196.667C26.7111 194.289 28.9206 193.1 31.8143 193.1C34.0238 193.1 35.7567 193.835 37.0128 195.304C38.2802 196.774 38.9476 198.669 39.0148 200.991ZM31.461 216.25C32.863 216.25 33.9734 215.739 34.7921 214.719C35.6109 213.698 36.0202 212.42 36.0202 210.883C36.0202 209.481 35.6445 208.326 34.893 207.417C34.1528 206.509 33.1153 206.055 31.7807 206.055C29.9637 206.055 28.1692 207.171 26.3971 209.403C26.9579 213.967 28.6459 216.25 31.461 216.25Z" fill="white"/>
<circle cx="37.3296" cy="160.051" r="25" transform="rotate(-75 37.3296 160.051)" fill="#373535"/>
<path d="M38.0743 170.283V170.35H41.0353V173.446H31.0084V170.35H34.3731C34.6311 166.952 35.3489 163.615 36.5265 160.34C37.7154 157.065 39.2183 154.048 41.0353 151.289H32.2701V154.772H29.1409V148.126H44.9888V150.7C43.7551 152.293 42.5999 154.278 41.5232 156.656C40.4577 159.034 39.6165 161.445 38.9996 163.89C38.3827 166.335 38.0743 168.466 38.0743 170.283Z" fill="white"/>
<circle cx="54.7522" cy="117.771" r="25" transform="rotate(-60 54.7522 117.771)" fill="#373535"/>
<path d="M62.5726 111.968C62.5726 114.402 61.3221 116.359 58.821 117.84C61.8492 119.028 63.3634 121.115 63.3634 124.098C63.3634 125.59 63.0157 126.896 62.3203 128.018C61.6249 129.128 60.6211 129.992 59.3089 130.609C57.9966 131.214 56.4432 131.517 54.6487 131.517C52.013 131.517 49.8483 130.906 48.1547 129.683C46.4724 128.461 45.6312 126.599 45.6312 124.098C45.6312 121.115 47.1341 119.028 50.1399 117.84C47.6613 116.415 46.4219 114.447 46.4219 111.935C46.4219 110.51 46.7808 109.299 47.4986 108.301C48.2276 107.302 49.1866 106.557 50.3755 106.063C51.5756 105.57 52.8878 105.323 54.3122 105.323C56.8133 105.323 58.8154 105.923 60.3183 107.123C61.8212 108.312 62.5726 109.927 62.5726 111.968ZM54.5814 116.426C55.7815 116.426 56.8414 116.107 57.7611 115.467C58.6808 114.817 59.1406 113.791 59.1406 112.389C59.1406 111.009 58.7481 109.994 57.963 109.344C57.1779 108.682 55.9834 108.351 54.3795 108.351C52.9551 108.351 51.8391 108.704 51.0316 109.411C50.2353 110.106 49.8371 111.076 49.8371 112.321C49.8371 113.656 50.2521 114.677 51.0821 115.383C51.9233 116.079 53.0897 116.426 54.5814 116.426ZM54.5141 128.539C55.9834 128.539 57.2059 128.13 58.1817 127.311C59.1574 126.481 59.6453 125.365 59.6453 123.963C59.6453 122.584 59.2023 121.479 58.3163 120.649C57.4414 119.808 56.1292 119.387 54.3795 119.387C52.8654 119.387 51.6429 119.808 50.7119 120.649C49.781 121.479 49.3156 122.584 49.3156 123.963C49.3156 125.343 49.7923 126.453 50.7456 127.295C51.6989 128.124 52.9551 128.539 54.5141 128.539Z" fill="white"/>
<circle cx="82.4921" cy="81.4169" r="25" transform="rotate(-45 82.4921 81.4169)" fill="#373535"/>
<path d="M90.2271 81.7286C90.2271 85.9345 89.4588 89.2152 87.9223 91.5705C86.3857 93.9258 84.193 95.1035 81.3442 95.1035C79.1571 95.1035 77.4243 94.3912 76.1457 92.9668C74.8783 91.5424 74.1885 89.6133 74.0764 87.1795H77.1383C77.3402 88.6936 77.8393 89.8937 78.6356 90.7798C79.4319 91.6546 80.4021 92.092 81.5461 92.092C83.2285 92.092 84.5351 91.2284 85.466 89.5012C86.4081 87.7627 86.8792 85.4803 86.8792 82.6539C85.1632 84.5157 83.1892 85.4467 80.9573 85.4467C79.6226 85.4467 78.4225 85.127 77.357 84.4877C76.2915 83.8372 75.4447 82.9175 74.8166 81.7286C74.1998 80.5285 73.8913 79.149 73.8913 77.59C73.8913 76.031 74.1885 74.5898 74.783 73.2663C75.3886 71.9428 76.2635 70.8886 77.4075 70.1035C78.5627 69.3071 79.931 68.909 81.5124 68.909C84.1594 68.909 86.2736 69.9857 87.855 72.1391C89.4364 74.2813 90.2271 77.4778 90.2271 81.7286ZM81.3442 82.1492C83.1836 82.1492 84.9725 81.0332 86.711 78.8013C86.4418 76.5021 85.8922 74.786 85.0622 73.6533C84.2323 72.5092 83.0827 71.9372 81.6134 71.9372C80.2787 71.9372 79.1908 72.4476 78.3496 73.4682C77.5196 74.4776 77.1046 75.7618 77.1046 77.3208C77.1046 78.7004 77.4635 79.85 78.1814 80.7697C78.9104 81.6894 79.9647 82.1492 81.3442 82.1492Z" fill="white"/>
<circle cx="118.711" cy="53.4952" r="25" transform="rotate(-30 118.711 53.4952)" fill="#373535"/>
<path d="M114.819 63.6164V66.7119H104.574V63.6164H108.056V44.4205H104.574V41.3923H111.539V63.6164H114.819ZM136.582 54.0605C136.582 56.8196 136.223 59.1805 135.506 61.1433C134.799 63.106 133.79 64.5977 132.477 65.6184C131.176 66.6278 129.629 67.1325 127.834 67.1325C124.985 67.1325 122.804 65.9548 121.29 63.5995C119.776 61.2442 119.018 58.0645 119.018 54.0605C119.018 51.2902 119.372 48.9237 120.078 46.9609C120.796 44.9869 121.817 43.4896 123.14 42.469C124.475 41.4483 126.04 40.938 127.834 40.938C130.638 40.938 132.797 42.1101 134.311 44.4542C135.825 46.7983 136.582 50.0004 136.582 54.0605ZM127.834 64.1547C129.494 64.1547 130.75 63.3696 131.603 61.7994C132.466 60.2292 132.898 57.6047 132.898 53.9259C132.898 50.2808 132.455 47.7011 131.569 46.187C130.683 44.6617 129.427 43.899 127.8 43.899C126.051 43.899 124.767 44.7514 123.948 46.4562C123.14 48.1498 122.736 50.6845 122.736 54.0605C122.736 57.6047 123.163 60.1731 124.015 61.7658C124.867 63.3584 126.14 64.1547 127.834 64.1547Z" fill="white"/>
<circle cx="160.921" cy="35.8991" r="25" transform="rotate(-15 160.921 35.8991)" fill="#373535"/>
<path d="M157.099 45.9936V49.0891H146.853V45.9936H150.335V26.7977H146.853V23.7695H153.818V45.9936H157.099ZM175.598 45.9936V49.0891H165.352V45.9936H168.835V26.7977H165.352V23.7695H172.317V45.9936H175.598Z" fill="white"/>
<circle cx="206.246" cy="29.8274" r="25" fill="#373535"/>
<path d="M202.501 39.9102V43.0057H192.255V39.9102H195.738V20.7144H192.255V17.6861H199.22V39.9102H202.501ZM223.103 24.1296C223.103 25.554 222.739 26.7989 222.01 27.8644C221.292 28.9299 220.013 30.1412 218.174 31.4983L216.559 32.7096C215.224 33.7191 214.192 34.5378 213.463 35.1659C212.745 35.794 212.129 36.4894 211.613 37.252C211.097 38.0147 210.743 38.8671 210.553 39.8092H220.092L220.243 33.9378H223.305L223.103 43.0057H206.868C206.891 40.942 207.244 39.1531 207.928 37.639C208.624 36.1136 209.448 34.8575 210.401 33.8705C211.355 32.8835 212.499 31.8853 213.833 30.8759L216.34 28.9748C217.495 28.1336 218.303 27.3653 218.763 26.6699C219.223 25.9633 219.452 25.1614 219.452 24.2642C219.452 22.9968 219.082 22.0098 218.342 21.3032C217.613 20.5854 216.604 20.2265 215.314 20.2265C213.654 20.2265 212.499 20.7144 211.848 21.6901C211.198 22.6659 210.872 24.18 210.872 26.2325V27.0905H207.524V26.1148C207.524 23.4118 208.119 21.3032 209.308 19.789C210.026 18.9142 210.878 18.2693 211.865 17.8543C212.852 17.4393 214.035 17.2318 215.415 17.2318C217.12 17.2318 218.544 17.5571 219.688 18.2076C220.832 18.8469 221.684 19.6881 222.245 20.7312C222.817 21.7742 223.103 22.907 223.103 24.1296Z" fill="white"/>
<path d="M314.609 151.266V201.141H307.609V174.289H298.695V168.602H307.609V151.266H314.609ZM291.366 163.734C291.366 172.484 295.359 181.617 303.78 185.227L299.679 190.75C293.909 188.043 289.999 182.82 287.866 176.477C285.706 183.258 281.741 188.918 275.945 191.789L271.788 186.266C280.155 182.438 284.202 172.977 284.202 163.734V161.656H273.866V156.078H301.702V161.656H291.366V163.734ZM327.832 154V173.852C334.285 173.824 339.508 173.496 345.332 172.484L346.207 178.117C339.262 179.43 332.918 179.703 324.879 179.703H320.941V154H327.832ZM360.098 183.094V201.031H353.152V188.727H325.809V183.094H360.098ZM360.098 151.266V181.016H353.152V170.352H340.957V165.102H353.152V161.656H340.957V156.406H353.152V151.266H360.098ZM174.012 250.391C168.152 250.352 162.605 246.875 162.605 236.523C162.605 226.992 167.176 221.328 174.246 221.328C179.949 221.328 183.816 224.922 184.402 229.57H178.621C178.152 227.578 176.512 226.367 174.246 226.367C170.418 226.367 168.387 229.844 168.348 235.391H168.621C169.91 232.891 172.723 231.406 175.848 231.406C180.926 231.406 184.715 235.234 184.715 240.547C184.715 246.289 180.379 250.43 174.012 250.391ZM173.973 245.742C176.863 245.742 179.012 243.555 179.012 240.703C179.012 237.891 176.941 235.664 174.051 235.664C171.16 235.664 168.973 237.93 168.934 240.703C168.973 243.477 171.082 245.742 173.973 245.742ZM186.816 257.969V228.789H192.52V232.344H192.754C193.535 230.625 195.254 228.516 198.809 228.516C203.496 228.516 207.402 232.148 207.402 239.414C207.402 246.484 203.652 250.352 198.809 250.352C195.332 250.352 193.574 248.359 192.754 246.602H192.598V257.969H186.816ZM192.48 239.375C192.48 243.203 194.121 245.742 196.973 245.742C199.941 245.742 201.504 243.125 201.504 239.375C201.504 235.664 199.941 233.125 196.973 233.125C194.082 233.125 192.48 235.547 192.48 239.375ZM209.152 250V228.789H214.66V232.5H214.895C215.793 230.039 217.941 228.516 220.793 228.516C223.723 228.516 225.871 230.039 226.574 232.5H226.77C227.668 230.078 230.051 228.516 233.176 228.516C237.121 228.516 239.855 231.133 239.855 235.742V250H234.074V236.875C234.074 234.453 232.668 233.281 230.754 233.281C228.566 233.281 227.316 234.805 227.316 237.031V250H221.691V236.719C221.691 234.609 220.363 233.281 218.41 233.281C216.457 233.281 214.934 234.844 214.934 237.266V250H209.152ZM262.691 236.055V240.664H249.801V236.055H262.691ZM284.863 221.719V250H278.965V227.305H278.809L272.324 231.367V226.172L279.316 221.719H284.863ZM289.426 250L289.387 245.742L299.543 236.406C302.199 233.867 303.605 232.305 303.605 230.078C303.605 227.578 301.691 226.016 299.113 226.016C296.457 226.016 294.738 227.695 294.738 230.391H289.152C289.113 224.844 293.215 221.328 299.191 221.328C305.246 221.328 309.27 224.766 309.27 229.688C309.27 232.891 307.707 235.547 301.887 240.82L297.59 245V245.156H309.66V250H289.426ZM310.863 244.062C310.863 239.336 314.691 237.773 318.754 237.539C320.277 237.441 323.129 237.305 324.027 237.266V235.547C323.988 233.789 322.777 232.734 320.629 232.734C318.676 232.734 317.426 233.633 317.113 235.078H311.605C311.957 231.406 315.16 228.516 320.785 228.516C325.395 228.516 329.77 230.586 329.77 235.703V250H324.301V247.07H324.145C323.09 249.023 321.098 250.391 317.934 250.391C313.871 250.391 310.863 248.281 310.863 244.062ZM316.41 243.906C316.41 245.547 317.738 246.406 319.574 246.406C322.191 246.406 324.066 244.648 324.027 242.422V240.859C323.148 240.898 320.688 241.035 319.691 241.133C317.699 241.328 316.41 242.266 316.41 243.906ZM332.184 250V228.789H337.691V232.5H337.926C338.824 230.039 340.973 228.516 343.824 228.516C346.754 228.516 348.902 230.039 349.605 232.5H349.801C350.699 230.078 353.082 228.516 356.207 228.516C360.152 228.516 362.887 231.133 362.887 235.742V250H357.105V236.875C357.105 234.453 355.699 233.281 353.785 233.281C351.598 233.281 350.348 234.805 350.348 237.031V250H344.723V236.719C344.723 234.609 343.395 233.281 341.441 233.281C339.488 233.281 337.965 234.844 337.965 237.266V250H332.184Z" fill="#373535"/>
</svg>
