<svg width="411" height="410" viewBox="0 0 411 410" fill="none" xmlns="http://www.w3.org/2000/svg">
<g clip-path="url(#clip0_168_960)">
<path d="M0.849609 205C0.849609 91.7816 92.6312 0 205.85 0C319.068 0 410.85 91.7816 410.85 205C410.85 318.218 319.068 410 205.85 410C92.6312 410 0.849609 318.218 0.849609 205Z" fill="#A2C979"/>
<path d="M440.775 137.015C429.825 103.16 401.144 81.4334 364.052 78.909C346.394 77.705 328.091 81.1879 312.54 88.7414C302.321 93.7007 293.606 100.165 286.684 107.833C279.775 100.165 271.047 93.7003 260.827 88.7414C245.276 81.1879 226.973 77.6908 209.315 78.909C172.223 81.4459 143.541 103.16 132.592 137.029C127.432 153.01 126.959 171.844 131.245 191.524C133.954 204.022 138.626 216.894 144.933 229.563H127.26C120.366 229.563 114.791 235.138 114.791 242.032C114.791 248.926 120.366 254.502 127.26 254.502H159.753C187.516 294.448 230.371 327.255 281.053 347.248C282.53 347.822 284.078 348.123 285.626 348.123C285.97 348.123 286.328 348.108 286.672 348.08C288.564 348.237 290.485 347.965 292.29 347.248C344.907 326.495 389.095 291.909 416.698 249.901C429.125 230.981 437.911 210.802 442.096 191.524C446.367 171.844 445.909 153.012 440.749 137.028L440.775 137.015ZM395.886 236.197C371.678 273.017 333.007 303.619 286.683 322.625C244.976 305.497 209.443 278.98 185.12 246.962V246.948L211.464 185.848L247.998 277.248C249.89 281.993 254.491 285.088 259.579 285.088H259.88C265.097 284.959 269.669 281.605 271.36 276.689L283.084 242.605L286.238 248.167C288.445 252.079 292.602 254.487 297.087 254.487H334.612C341.507 254.487 347.082 248.912 347.082 242.018C347.082 235.124 341.507 229.549 334.612 229.549H304.356L291.155 206.243C288.733 201.986 284.046 199.536 279.159 199.98C274.271 200.424 270.115 203.706 268.524 208.336L258.706 236.844L223.475 148.709C221.598 144.037 217.097 140.941 212.066 140.869H211.894C206.921 140.869 202.421 143.822 200.443 148.409L168.881 221.635C154.19 193.801 149.475 165.867 156.326 144.681C167.419 110.368 198.28 104.65 211.019 103.776C212.854 103.647 214.688 103.59 216.508 103.59C242.479 103.59 266.23 116.174 275.443 135.308C277.522 139.623 281.893 142.36 286.68 142.36C291.467 142.36 295.825 139.623 297.917 135.308C307.792 114.827 334.28 101.856 362.345 103.776C375.101 104.65 405.946 110.383 417.038 144.68C425.079 169.577 417.167 203.773 395.883 236.183L395.886 236.197Z" fill="#71A23D"/>
<path d="M112.086 151.776H118.518V184.272H112.086V151.776ZM104.454 164.736H112.998V169.92H104.454V164.736ZM98.1176 155.136H104.79C104.79 159.136 103.99 162.752 102.39 165.984C100.79 169.216 98.4696 172.016 95.4296 174.384C92.4216 176.752 88.7576 178.624 84.4376 180L81.7976 174.912C85.2216 173.824 88.1496 172.448 90.5816 170.784C93.0136 169.088 94.8696 167.168 96.1496 165.024C97.4616 162.848 98.1176 160.512 98.1176 158.016V155.136ZM84.1016 155.136H102.15V160.224H84.1016V155.136ZM89.3816 190.368H119.622V195.504H89.3816V190.368ZM89.3816 181.056H95.7656V193.344H89.3816V181.056ZM151.634 151.776H158.018V177.504H151.634V151.776ZM156.29 162.144H163.922V167.424H156.29V162.144ZM138.962 154.704H145.826C145.826 158.672 145.026 162.24 143.426 165.408C141.826 168.544 139.49 171.216 136.418 173.424C133.378 175.632 129.682 177.344 125.33 178.56L122.738 173.472C126.29 172.48 129.266 171.216 131.666 169.68C134.098 168.112 135.922 166.336 137.138 164.352C138.354 162.336 138.962 160.176 138.962 157.872V154.704ZM124.802 154.704H142.802V159.792H124.802V154.704ZM143.618 178.08C146.626 178.08 149.25 178.464 151.49 179.232C153.73 179.968 155.458 181.024 156.674 182.4C157.922 183.744 158.546 185.344 158.546 187.2C158.546 189.056 157.922 190.656 156.674 192C155.458 193.376 153.73 194.432 151.49 195.168C149.25 195.904 146.626 196.272 143.618 196.272C140.642 196.272 138.034 195.904 135.794 195.168C133.554 194.432 131.81 193.376 130.562 192C129.314 190.656 128.69 189.056 128.69 187.2C128.69 185.344 129.314 183.744 130.562 182.4C131.81 181.024 133.554 179.968 135.794 179.232C138.034 178.464 140.642 178.08 143.618 178.08ZM143.618 183.024C141.858 183.024 140.322 183.184 139.01 183.504C137.73 183.824 136.738 184.288 136.034 184.896C135.362 185.504 135.026 186.272 135.026 187.2C135.026 188.096 135.362 188.848 136.034 189.456C136.738 190.064 137.73 190.528 139.01 190.848C140.322 191.168 141.858 191.328 143.618 191.328C145.442 191.328 146.994 191.168 148.274 190.848C149.554 190.528 150.53 190.064 151.202 189.456C151.906 188.848 152.258 188.096 152.258 187.2C152.258 186.272 151.906 185.504 151.202 184.896C150.53 184.288 149.554 183.824 148.274 183.504C146.994 183.184 145.442 183.024 143.618 183.024ZM186.862 167.616C188.014 167.616 189.038 167.904 189.934 168.48C190.862 169.024 191.598 169.76 192.142 170.688C192.718 171.584 193.006 172.608 193.006 173.76C193.006 174.88 192.718 175.904 192.142 176.832C191.598 177.76 190.862 178.512 189.934 179.088C189.038 179.632 188.014 179.904 186.862 179.904C185.742 179.904 184.718 179.632 183.79 179.088C182.862 178.512 182.11 177.76 181.534 176.832C180.99 175.904 180.718 174.88 180.718 173.76C180.718 172.608 180.99 171.584 181.534 170.688C182.11 169.76 182.862 169.024 183.79 168.48C184.718 167.904 185.742 167.616 186.862 167.616ZM109.782 211.728H116.166V256.32H109.782V211.728ZM114.726 228.576H122.55V233.808H114.726V228.576ZM83.1416 240.768H86.8376C89.3656 240.768 91.7336 240.736 93.9416 240.672C96.1496 240.608 98.2936 240.48 100.374 240.288C102.486 240.064 104.63 239.776 106.806 239.424L107.382 244.56C105.142 244.944 102.934 245.248 100.758 245.472C98.6136 245.664 96.4056 245.808 94.1336 245.904C91.8616 246 89.4296 246.048 86.8376 246.048H83.1416V240.768ZM83.0456 215.52H103.494V232.752H89.4296V242.784H83.1416V227.712H97.1576V220.656H83.0456V215.52ZM153.554 211.728H159.938V256.32H153.554V211.728ZM135.986 214.848C138.258 214.848 140.274 215.504 142.034 216.816C143.794 218.096 145.17 219.936 146.162 222.336C147.186 224.704 147.698 227.504 147.698 230.736C147.698 234 147.186 236.832 146.162 239.232C145.17 241.6 143.794 243.44 142.034 244.752C140.274 246.032 138.258 246.672 135.986 246.672C133.746 246.672 131.746 246.032 129.986 244.752C128.226 243.44 126.834 241.6 125.81 239.232C124.818 236.832 124.322 234 124.322 230.736C124.322 227.504 124.818 224.704 125.81 222.336C126.834 219.936 128.226 218.096 129.986 216.816C131.746 215.504 133.746 214.848 135.986 214.848ZM135.986 220.656C134.898 220.656 133.938 221.04 133.106 221.808C132.274 222.576 131.618 223.712 131.138 225.216C130.69 226.688 130.466 228.528 130.466 230.736C130.466 232.912 130.69 234.768 131.138 236.304C131.618 237.808 132.274 238.944 133.106 239.712C133.938 240.48 134.898 240.864 135.986 240.864C137.106 240.864 138.082 240.48 138.914 239.712C139.746 238.944 140.386 237.808 140.834 236.304C141.314 234.768 141.554 232.912 141.554 230.736C141.554 228.528 141.314 226.688 140.834 225.216C140.386 223.712 139.746 222.576 138.914 221.808C138.082 221.04 137.106 220.656 135.986 220.656ZM164.83 245.904H205.102V251.136H164.83V245.904ZM167.902 215.616H201.79V220.752H167.902V215.616ZM168.142 234.048H201.646V239.136H168.142V234.048ZM173.95 220.368H180.334V234.528H173.95V220.368ZM189.358 220.368H195.742V234.528H189.358V220.368ZM223.098 214.368H228.618V217.584C228.618 219.504 228.346 221.376 227.802 223.2C227.29 224.992 226.522 226.688 225.498 228.288C224.474 229.888 223.21 231.344 221.706 232.656C220.234 233.936 218.538 235.04 216.618 235.968C214.698 236.896 212.586 237.584 210.282 238.032L207.546 232.704C209.53 232.352 211.338 231.824 212.97 231.12C214.634 230.384 216.09 229.504 217.338 228.48C218.586 227.456 219.642 226.352 220.506 225.168C221.37 223.952 222.01 222.704 222.426 221.424C222.874 220.112 223.098 218.832 223.098 217.584V214.368ZM224.346 214.368H229.914V217.584C229.914 218.864 230.122 220.16 230.538 221.472C230.986 222.784 231.626 224.048 232.458 225.264C233.322 226.448 234.378 227.536 235.626 228.528C236.874 229.52 238.314 230.384 239.946 231.12C241.578 231.824 243.418 232.352 245.466 232.704L242.73 238.032C240.426 237.584 238.314 236.896 236.394 235.968C234.474 235.04 232.762 233.936 231.258 232.656C229.786 231.376 228.522 229.936 227.466 228.336C226.442 226.736 225.658 225.024 225.114 223.2C224.602 221.376 224.346 219.504 224.346 217.584V214.368ZM206.586 245.616H246.858V250.848H206.586V245.616ZM250.071 241.056H253.767C256.263 241.056 258.599 241.04 260.775 241.008C262.951 240.944 265.079 240.832 267.159 240.672C269.239 240.48 271.399 240.224 273.639 239.904L274.215 244.944C271.975 245.296 269.767 245.568 267.591 245.76C265.447 245.952 263.239 246.08 260.967 246.144C258.727 246.176 256.327 246.192 253.767 246.192H250.071V241.056ZM250.071 215.472H270.951V220.656H256.455V242.736H250.071V215.472ZM254.919 227.856H270.327V232.848H254.919V227.856ZM276.711 211.824H283.143V256.272H276.711V211.824ZM281.751 228.672H289.575V233.904H281.751V228.672ZM302.579 213.072C304.883 213.072 306.915 213.52 308.675 214.416C310.467 215.28 311.875 216.48 312.899 218.016C313.955 219.52 314.483 221.264 314.483 223.248C314.483 225.232 313.955 226.992 312.899 228.528C311.875 230.032 310.467 231.216 308.675 232.08C306.915 232.944 304.883 233.376 302.579 233.376C300.339 233.376 298.323 232.944 296.531 232.08C294.739 231.216 293.315 230.032 292.259 228.528C291.235 226.992 290.723 225.232 290.723 223.248C290.723 221.264 291.235 219.504 292.259 217.968C293.315 216.432 294.739 215.232 296.531 214.368C298.323 213.504 300.339 213.072 302.579 213.072ZM302.627 218.256C301.539 218.256 300.563 218.464 299.699 218.88C298.835 219.264 298.147 219.824 297.635 220.56C297.155 221.296 296.915 222.192 296.915 223.248C296.915 224.304 297.155 225.216 297.635 225.984C298.147 226.72 298.819 227.28 299.651 227.664C300.515 228.048 301.507 228.24 302.627 228.24C303.715 228.24 304.675 228.048 305.507 227.664C306.371 227.28 307.043 226.72 307.523 225.984C308.035 225.216 308.291 224.304 308.291 223.248C308.291 222.192 308.035 221.296 307.523 220.56C307.043 219.824 306.371 219.264 305.507 218.88C304.643 218.464 303.683 218.256 302.627 218.256ZM320.627 211.824H327.011V234.048H320.627V211.824ZM297.395 235.872H327.011V248.016H303.731V253.44H297.443V243.408H320.675V240.768H297.395V235.872ZM297.443 250.8H328.115V255.792H297.443V250.8Z" fill="white"/>
</g>
<defs>
<clipPath id="clip0_168_960">
<path d="M0.849609 205C0.849609 91.7816 92.6312 0 205.85 0C319.068 0 410.85 91.7816 410.85 205C410.85 318.218 319.068 410 205.85 410C92.6312 410 0.849609 318.218 0.849609 205Z" fill="white"/>
</clipPath>
</defs>
</svg>
