<svg width="411" height="410" viewBox="0 0 411 410" fill="none" xmlns="http://www.w3.org/2000/svg">
<g clip-path="url(#clip0_358_1028)">
<path d="M0.849609 205C0.849609 91.7816 92.6312 0 205.85 0C319.068 0 410.85 91.7816 410.85 205C410.85 318.218 319.068 410 205.85 410C92.6312 410 0.849609 318.218 0.849609 205Z" fill="#7991C9"/>
<path fill-rule="evenodd" clip-rule="evenodd" d="M401.852 333.585C395.053 335.549 387.836 335.549 381.037 333.585V308.577L391.445 298.183L401.852 308.577V333.585ZM438.83 134.419L311.744 70.9546C304.154 67.2511 295.817 65.326 287.37 65.326C278.922 65.326 270.586 67.2511 262.995 70.9546L135.899 134.419C131.367 136.671 127.556 140.145 124.897 144.446C122.238 148.748 120.836 153.706 120.85 158.761C120.85 169.124 126.626 178.447 135.909 183.093L172.887 201.563V262.699C172.887 297.664 223.176 325.062 287.37 325.062C306.655 325.062 325.649 322.515 342.301 317.703L336.514 297.726C321.715 302.008 304.719 304.274 287.37 304.274C232.168 304.274 193.702 282.354 193.702 262.699V211.957L262.995 246.568C270.569 250.33 278.911 252.294 287.37 252.305C295.789 252.305 304.209 250.31 311.744 246.558L354.467 225.219L345.163 206.625L302.429 227.963C297.741 230.256 292.59 231.448 287.37 231.448C282.149 231.448 276.998 230.256 272.31 227.963L145.234 164.499C144.161 163.973 143.257 163.156 142.626 162.141C141.994 161.127 141.661 159.956 141.665 158.761C141.665 156.308 143.028 154.105 145.224 153.014L272.31 89.5491C276.998 87.2562 282.149 86.0641 287.37 86.0641C292.59 86.0641 297.741 87.2562 302.429 89.5491L429.505 153.014C430.58 153.54 431.485 154.359 432.117 155.375C432.748 156.392 433.08 157.565 433.075 158.761C433.078 159.954 432.746 161.124 432.117 162.138C431.488 163.152 430.586 163.97 429.515 164.499L390.737 183.873L290.804 148.95L283.935 168.573L381.037 202.519V279.184L360.222 299.971V347.076L365.978 349.944C367.268 350.589 378.945 356.243 391.445 356.243C403.944 356.243 415.621 350.589 416.912 349.944L422.667 347.076V299.971L401.852 279.184V201.563L438.841 183.093C443.37 180.843 447.179 177.374 449.839 173.076C452.498 168.778 453.901 163.824 453.89 158.772C453.89 148.399 448.114 139.065 438.83 134.419Z" fill="#4667B3"/>
<path d="M126.706 155.568H154.834V160.656H126.706V155.568ZM122.818 185.712H163.042V190.896H122.818V185.712ZM131.266 171.744H137.554V187.392H131.266V171.744ZM153.01 155.568H159.394V159.888C159.394 161.68 159.362 163.6 159.298 165.648C159.266 167.664 159.138 169.888 158.914 172.32C158.722 174.752 158.37 177.456 157.858 180.432L151.522 179.808C152.258 175.584 152.69 171.872 152.818 168.672C152.946 165.44 153.01 162.512 153.01 159.888V155.568ZM142.258 171.744H148.498V187.392H142.258V171.744ZM174.03 175.008H180.366V183.744H174.03V175.008ZM188.862 174.96H195.198V183.696H188.862V174.96ZM164.526 172.512H204.75V177.552H164.526V172.512ZM168.99 181.68H199.902V196.272H193.518V186.672H168.99V181.68ZM184.638 152.688C187.902 152.688 190.734 153.04 193.134 153.744C195.566 154.448 197.438 155.456 198.75 156.768C200.094 158.048 200.766 159.6 200.766 161.424C200.766 163.216 200.094 164.768 198.75 166.08C197.438 167.392 195.566 168.4 193.134 169.104C190.734 169.808 187.902 170.16 184.638 170.16C181.406 170.16 178.574 169.808 176.142 169.104C173.742 168.4 171.87 167.392 170.526 166.08C169.214 164.768 168.558 163.216 168.558 161.424C168.558 159.6 169.214 158.048 170.526 156.768C171.87 155.456 173.742 154.448 176.142 153.744C178.574 153.04 181.406 152.688 184.638 152.688ZM184.638 157.584C182.654 157.584 180.942 157.728 179.502 158.016C178.062 158.272 176.974 158.688 176.238 159.264C175.534 159.84 175.182 160.56 175.182 161.424C175.182 162.256 175.534 162.96 176.238 163.536C176.974 164.112 178.062 164.544 179.502 164.832C180.942 165.088 182.654 165.216 184.638 165.216C186.686 165.216 188.414 165.088 189.822 164.832C191.23 164.544 192.302 164.112 193.038 163.536C193.774 162.96 194.142 162.256 194.142 161.424C194.142 160.56 193.774 159.84 193.038 159.264C192.302 158.688 191.23 158.272 189.822 158.016C188.414 157.728 186.686 157.584 184.638 157.584ZM228.362 167.616C229.514 167.616 230.538 167.904 231.434 168.48C232.362 169.024 233.098 169.76 233.642 170.688C234.218 171.584 234.506 172.608 234.506 173.76C234.506 174.88 234.218 175.904 233.642 176.832C233.098 177.76 232.362 178.512 231.434 179.088C230.538 179.632 229.514 179.904 228.362 179.904C227.242 179.904 226.218 179.632 225.29 179.088C224.362 178.512 223.61 177.76 223.034 176.832C222.49 175.904 222.218 174.88 222.218 173.76C222.218 172.608 222.49 171.584 223.034 170.688C223.61 169.76 224.362 169.024 225.29 168.48C226.218 167.904 227.242 167.616 228.362 167.616ZM132.754 218.832H137.794V223.824C137.794 226.288 137.522 228.752 136.978 231.216C136.466 233.68 135.698 236 134.674 238.176C133.65 240.32 132.354 242.24 130.786 243.936C129.25 245.632 127.458 246.96 125.41 247.92L121.81 242.88C123.666 242.016 125.266 240.88 126.61 239.472C127.986 238.064 129.122 236.496 130.018 234.768C130.946 233.04 131.634 231.248 132.082 229.392C132.53 227.504 132.754 225.648 132.754 223.824V218.832ZM134.098 218.832H139.138V223.824C139.138 225.488 139.362 227.2 139.81 228.96C140.258 230.72 140.914 232.416 141.778 234.048C142.674 235.68 143.794 237.168 145.138 238.512C146.514 239.824 148.114 240.896 149.938 241.728L146.386 246.816C144.338 245.856 142.546 244.576 141.01 242.976C139.506 241.344 138.226 239.504 137.17 237.456C136.146 235.376 135.378 233.184 134.866 230.88C134.354 228.544 134.098 226.192 134.098 223.824V218.832ZM123.538 216.048H147.97V221.328H123.538V216.048ZM151.186 211.824H157.618V256.272H151.186V211.824ZM156.226 228.768H164.05V234H156.226V228.768ZM195.198 211.776H201.582V256.224H195.198V211.776ZM182.094 216.384H188.382C188.382 219.776 188.046 223.024 187.374 226.128C186.734 229.2 185.646 232.096 184.11 234.816C182.606 237.536 180.526 240.064 177.87 242.4C175.246 244.704 171.966 246.816 168.03 248.736L164.67 243.696C168.958 241.616 172.366 239.328 174.894 236.832C177.454 234.304 179.294 231.456 180.414 228.288C181.534 225.088 182.094 221.504 182.094 217.536V216.384ZM167.07 216.384H185.07V221.472H167.07V216.384ZM223.466 223.536H232.442V228.576H223.466V223.536ZM223.226 234.624H232.298V239.712H223.226V234.624ZM238.49 211.776H244.586V256.224H238.49V211.776ZM229.37 212.736H235.322V254.256H229.37V212.736ZM219.338 217.008H225.434C225.434 221.232 224.938 225.168 223.946 228.816C222.986 232.432 221.322 235.76 218.954 238.8C216.618 241.84 213.386 244.576 209.258 247.008L205.658 242.544C209.018 240.528 211.69 238.336 213.674 235.968C215.69 233.568 217.13 230.928 217.994 228.048C218.89 225.136 219.338 221.888 219.338 218.304V217.008ZM208.202 217.008H221.45V222.144H208.202V217.008ZM249.334 213.744H255.67V219.024H264.406V213.744H270.694V233.184H249.334V213.744ZM255.67 223.776V228.24H264.406V223.776H255.67ZM276.646 211.824H283.03V234.384H276.646V211.824ZM280.486 220.32H288.886V225.552H280.486V220.32ZM253.702 236.064H283.03V248.208H260.086V253.44H253.75V243.648H276.742V240.96H253.702V236.064ZM253.75 250.992H284.326V255.984H253.75V250.992Z" fill="white"/>
</g>
<defs>
<clipPath id="clip0_358_1028">
<path d="M0.849609 205C0.849609 91.7816 92.6312 0 205.85 0C319.068 0 410.85 91.7816 410.85 205C410.85 318.218 319.068 410 205.85 410C92.6312 410 0.849609 318.218 0.849609 205Z" fill="white"/>
</clipPath>
</defs>
</svg>
