<svg width="411" height="411" viewBox="0 0 411 411" fill="none" xmlns="http://www.w3.org/2000/svg">
<g clip-path="url(#clip0_358_1035)">
<path d="M0.849609 205.5C0.849609 92.2816 92.6312 0.5 205.85 0.5C319.068 0.5 410.85 92.2816 410.85 205.5C410.85 318.718 319.068 410.5 205.85 410.5C92.6312 410.5 0.849609 318.718 0.849609 205.5Z" fill="#96B5CD"/>
<path d="M444.575 138.352C444.548 123.349 432.312 111.127 417.296 111.087H364.5V103.592C364.5 90.0669 353.5 79.0535 339.962 79.0535H239.764C226.239 79.0535 215.226 90.0535 215.226 103.592V111.087H162.388C147.386 111.114 135.163 123.349 135.123 138.365V171.849C135.123 180.942 138.373 189.269 144.014 195.622V299.43C144.068 317.307 158.574 331.893 176.397 331.947H403.315C421.098 331.893 435.617 317.307 435.657 299.403V195.62C441.298 189.253 444.548 180.939 444.548 171.846V138.349L444.575 138.352ZM238.61 103.593C238.61 102.962 239.147 102.425 239.778 102.425H339.976C340.594 102.425 341.144 102.976 341.144 103.593V111.088H238.612L238.61 103.593ZM158.506 138.393C158.506 136.231 160.279 134.458 162.428 134.458H417.269C419.432 134.458 421.205 136.231 421.205 138.38V171.864C421.205 177.357 417.981 181.883 412.783 183.67L319.693 215.904C318.954 210.156 314.066 205.71 308.115 205.71H271.583C265.633 205.71 260.744 210.156 260.005 215.904L166.901 183.656C161.717 181.87 158.493 177.344 158.493 171.85V138.393H158.506ZM296.443 229.066V236.359C296.443 239.986 293.488 242.941 289.862 242.941C286.289 242.941 283.28 239.919 283.28 236.359V229.066H296.443ZM403.301 308.592H176.448C171.478 308.579 167.409 304.442 167.395 299.405V208.557L260.231 240.711C262.34 255.176 274.817 266.324 289.86 266.324C304.903 266.324 317.38 255.176 319.489 240.711L412.325 208.557V299.378C412.312 304.441 408.255 308.578 403.313 308.591L403.301 308.592Z" fill="#5B8FB8"/>
<path d="M130.298 152.228H136.682V196.82H130.298V152.228ZM101.978 155.78H108.314V166.628H117.53V155.78H123.866V186.452H101.978V155.78ZM108.314 171.572V181.364H117.53V171.572H108.314ZM141.574 186.26H181.846V191.444H141.574V186.26ZM158.278 158.468H163.702V160.964C163.702 162.852 163.43 164.644 162.886 166.34C162.374 168.036 161.606 169.62 160.582 171.092C159.59 172.532 158.358 173.844 156.886 175.028C155.414 176.18 153.734 177.172 151.846 178.004C149.958 178.836 147.894 179.46 145.654 179.876L143.11 174.74C145.094 174.42 146.886 173.94 148.486 173.3C150.118 172.66 151.542 171.892 152.758 170.996C153.974 170.1 154.982 169.124 155.782 168.068C156.614 166.98 157.238 165.844 157.654 164.66C158.07 163.444 158.278 162.212 158.278 160.964V158.468ZM159.622 158.468H164.998V160.964C164.998 162.212 165.206 163.428 165.622 164.612C166.038 165.796 166.662 166.932 167.494 168.02C168.326 169.076 169.35 170.052 170.566 170.948C171.814 171.812 173.254 172.564 174.886 173.204C176.55 173.812 178.39 174.26 180.406 174.548L177.91 179.636C175.606 179.22 173.494 178.612 171.574 177.812C169.686 177.012 167.99 176.036 166.486 174.884C165.014 173.732 163.766 172.436 162.742 170.996C161.718 169.556 160.934 168.004 160.39 166.34C159.878 164.644 159.622 162.852 159.622 160.964V158.468ZM144.886 156.02H178.39V161.108H144.886V156.02ZM214.098 152.276H220.434V196.724H214.098V152.276ZM185.634 156.5H192.018V184.148H185.634V156.5ZM185.634 180.356H189.57C192.834 180.356 196.242 180.228 199.794 179.972C203.346 179.684 206.962 179.172 210.642 178.436L211.314 183.764C207.538 184.564 203.81 185.108 200.13 185.396C196.482 185.652 192.962 185.78 189.57 185.78H185.634V180.356ZM241.598 154.868H247.118V158.084C247.118 160.004 246.846 161.876 246.302 163.7C245.79 165.492 245.022 167.188 243.998 168.788C242.974 170.388 241.71 171.844 240.206 173.156C238.734 174.436 237.038 175.54 235.118 176.468C233.198 177.396 231.086 178.084 228.782 178.532L226.046 173.204C228.03 172.852 229.838 172.324 231.47 171.62C233.134 170.884 234.59 170.004 235.838 168.98C237.086 167.956 238.142 166.852 239.006 165.668C239.87 164.452 240.51 163.204 240.926 161.924C241.374 160.612 241.598 159.332 241.598 158.084V154.868ZM242.846 154.868H248.414V158.084C248.414 159.364 248.622 160.66 249.038 161.972C249.486 163.284 250.126 164.548 250.958 165.764C251.822 166.948 252.878 168.036 254.126 169.028C255.374 170.02 256.814 170.884 258.446 171.62C260.078 172.324 261.918 172.852 263.966 173.204L261.23 178.532C258.926 178.084 256.814 177.396 254.894 176.468C252.974 175.54 251.262 174.436 249.758 173.156C248.286 171.876 247.022 170.436 245.966 168.836C244.942 167.236 244.158 165.524 243.614 163.7C243.102 161.876 242.846 160.004 242.846 158.084V154.868ZM225.086 186.116H265.358V191.348H225.086V186.116ZM288.875 168.116C290.027 168.116 291.051 168.404 291.947 168.98C292.875 169.524 293.611 170.26 294.155 171.188C294.731 172.084 295.019 173.108 295.019 174.26C295.019 175.38 294.731 176.404 294.155 177.332C293.611 178.26 292.875 179.012 291.947 179.588C291.051 180.132 290.027 180.404 288.875 180.404C287.755 180.404 286.731 180.132 285.803 179.588C284.875 179.012 284.123 178.26 283.547 177.332C283.003 176.404 282.731 175.38 282.731 174.26C282.731 173.108 283.003 172.084 283.547 171.188C284.123 170.26 284.875 169.524 285.803 168.98C286.731 168.404 287.755 168.116 288.875 168.116ZM121.226 219.332H131.642V224.372H121.226V219.332ZM120.842 228.5H131.306V233.636H120.842V228.5ZM130.586 212.276H137.018V237.86H130.586V212.276ZM116.138 215.3H122.906C122.906 219.332 122.154 222.9 120.65 226.004C119.146 229.076 116.89 231.684 113.882 233.828C110.874 235.94 107.114 237.62 102.602 238.868L100.154 233.876C103.93 232.884 106.986 231.636 109.322 230.132C111.658 228.596 113.37 226.836 114.458 224.852C115.578 222.868 116.138 220.724 116.138 218.42V215.3ZM102.554 215.3H120.602V220.388H102.554V215.3ZM122.282 238.436C125.29 238.436 127.914 238.804 130.154 239.54C132.426 240.276 134.17 241.316 135.386 242.66C136.634 244.004 137.258 245.604 137.258 247.46C137.258 249.316 136.634 250.916 135.386 252.26C134.17 253.604 132.426 254.644 130.154 255.38C127.914 256.148 125.29 256.532 122.282 256.532C119.274 256.532 116.634 256.148 114.362 255.38C112.122 254.644 110.378 253.604 109.13 252.26C107.882 250.916 107.258 249.316 107.258 247.46C107.258 245.604 107.882 244.004 109.13 242.66C110.378 241.316 112.122 240.276 114.362 239.54C116.634 238.804 119.274 238.436 122.282 238.436ZM122.282 243.332C120.458 243.332 118.89 243.492 117.578 243.812C116.298 244.132 115.306 244.596 114.602 245.204C113.898 245.812 113.546 246.564 113.546 247.46C113.546 248.356 113.898 249.124 114.602 249.764C115.306 250.372 116.298 250.836 117.578 251.156C118.89 251.444 120.458 251.588 122.282 251.588C124.106 251.588 125.658 251.444 126.938 251.156C128.218 250.836 129.21 250.372 129.914 249.764C130.618 249.124 130.97 248.356 130.97 247.46C130.97 246.564 130.618 245.812 129.914 245.204C129.21 244.596 128.218 244.132 126.938 243.812C125.658 243.492 124.106 243.332 122.282 243.332ZM173.638 212.276H179.734V256.724H173.638V212.276ZM158.998 227.492H166.39V232.676H158.998V227.492ZM164.662 212.996H170.614V254.708H164.662V212.996ZM149.446 219.524H154.246V224.084C154.246 226.58 154.054 229.044 153.67 231.476C153.318 233.908 152.758 236.212 151.99 238.388C151.222 240.532 150.214 242.468 148.966 244.196C147.718 245.924 146.214 247.348 144.454 248.468L140.662 243.764C142.838 242.388 144.566 240.66 145.846 238.58C147.126 236.468 148.038 234.164 148.582 231.668C149.158 229.14 149.446 226.612 149.446 224.084V219.524ZM150.886 219.524H155.638V224.084C155.638 226.548 155.91 228.98 156.454 231.38C156.998 233.78 157.894 235.972 159.142 237.956C160.39 239.908 162.086 241.508 164.23 242.756L160.534 247.364C158.166 245.956 156.278 244.052 154.87 241.652C153.462 239.252 152.438 236.548 151.798 233.54C151.19 230.5 150.886 227.348 150.886 224.084V219.524ZM142.294 216.74H162.118V221.876H142.294V216.74Z" fill="white"/>
</g>
<defs>
<clipPath id="clip0_358_1035">
<path d="M0.849609 205.5C0.849609 92.2816 92.6312 0.5 205.85 0.5C319.068 0.5 410.85 92.2816 410.85 205.5C410.85 318.718 319.068 410.5 205.85 410.5C92.6312 410.5 0.849609 318.718 0.849609 205.5Z" fill="white"/>
</clipPath>
</defs>
</svg>
