<svg width="411" height="410" viewBox="0 0 411 410" fill="none" xmlns="http://www.w3.org/2000/svg">
<g clip-path="url(#clip0_169_967)">
<path d="M0.849609 205C0.849609 91.7816 92.6312 0 205.85 0C319.068 0 410.85 91.7816 410.85 205C410.85 318.218 319.068 410 205.85 410C92.6312 410 0.849609 318.218 0.849609 205Z" fill="white"/>
<path d="M0.849609 205C0.849609 91.7816 92.6312 0 205.85 0C319.068 0 410.85 91.7816 410.85 205C410.85 318.218 319.068 410 205.85 410C92.6312 410 0.849609 318.218 0.849609 205Z" fill="#61C0C2"/>
<path d="M187.416 289.026C217.121 314.623 255.145 328.725 294.449 328.725C333.753 328.725 371.777 314.623 401.481 289.026C420.04 273.062 429.746 249.009 427.453 224.689C425.16 200.477 411.827 179.563 390.869 167.43C389.909 166.898 388.949 166.366 387.989 165.834C394.815 158.277 398.975 148.326 398.975 137.417C398.975 113.949 379.776 94.8983 356.151 94.8983C332.579 94.8983 313.381 113.949 313.381 137.417C313.381 148.326 317.54 158.277 324.367 165.834C319.567 168.335 314.981 171.421 310.608 175.04C305.701 172.752 300.262 171.421 294.449 171.421C288.689 171.421 283.196 172.698 278.29 175.04C274.504 171.9 270.504 169.186 266.397 166.845C276.21 157.798 282.396 144.92 282.396 130.605C282.396 103.413 260.105 81.2753 232.746 81.2753C205.388 81.2753 183.097 103.413 183.097 130.605C183.097 144.92 189.283 157.798 199.095 166.845C198.722 167.058 198.402 167.217 198.029 167.43C177.07 179.616 163.738 200.477 161.445 224.689C159.152 249.009 168.858 273.062 187.416 289.026ZM232.746 157.852C217.601 157.852 205.282 145.612 205.282 130.605C205.335 115.599 217.601 103.359 232.746 103.359C247.892 103.359 260.158 115.599 260.158 130.605C260.158 145.612 247.892 157.852 232.746 157.852ZM260.158 274.711C267.571 257.257 280.69 246.454 294.449 246.454C308.208 246.454 321.327 257.31 328.74 274.711C331.833 281.949 329.913 290.303 323.993 295.518C316.954 301.691 308.368 305.31 299.568 306.321C296.155 306.428 292.742 306.428 289.276 306.321C280.476 305.31 271.944 301.745 264.851 295.518C258.985 290.357 257.065 281.949 260.158 274.711ZM294.449 193.506C303.035 193.506 309.968 200.423 309.968 208.938C309.968 217.452 302.982 224.37 294.449 224.37C285.863 224.37 278.93 217.452 278.93 208.938C278.93 200.423 285.863 193.506 294.449 193.506ZM356.151 157.852C344.792 157.852 335.566 148.699 335.566 137.417C335.566 126.135 344.792 116.982 356.151 116.982C367.51 116.982 376.736 126.135 376.736 137.417C376.736 148.699 367.51 157.852 356.151 157.852ZM386.922 272.37C375.723 282.055 363.297 289.612 350.125 295.199C353.378 285.94 353.218 275.616 349.218 266.144C343.139 251.829 333.966 240.548 323.087 233.31C328.74 226.765 332.206 218.197 332.206 208.938C332.206 202.126 330.34 195.741 327.14 190.206C335.993 183.608 345.912 179.936 356.151 179.936C364.257 179.936 372.15 182.118 379.616 186.481C394.335 194.996 403.668 209.683 405.268 226.712C406.974 244.273 400.255 260.876 386.922 272.37ZM183.577 226.765C185.176 209.736 194.509 195.049 209.228 186.534C216.694 182.171 224.587 179.989 232.693 179.989C242.879 179.989 252.852 183.608 261.704 190.206C258.505 195.741 256.638 202.126 256.638 208.938C256.638 218.25 260.051 226.765 265.757 233.31C254.878 240.548 245.706 251.829 239.626 266.144C235.626 275.616 235.466 285.94 238.719 295.199C225.6 289.665 213.174 282.055 201.922 272.37C188.643 260.876 181.923 244.273 183.577 226.765Z" fill="#33A2A4"/>
<path d="M109.802 185.232H114.938V191.664C114.938 194.416 114.698 197.104 114.218 199.728C113.738 202.32 112.986 204.736 111.962 206.976C110.97 209.216 109.706 211.216 108.17 212.976C106.634 214.704 104.826 216.08 102.746 217.104L98.9056 211.968C100.794 211.104 102.41 209.952 103.754 208.512C105.13 207.072 106.266 205.44 107.162 203.616C108.058 201.792 108.714 199.872 109.13 197.856C109.578 195.808 109.802 193.744 109.802 191.664V185.232ZM111.05 185.232H116.186V191.664C116.186 193.68 116.378 195.664 116.762 197.616C117.178 199.568 117.802 201.424 118.634 203.184C119.498 204.912 120.57 206.464 121.85 207.84C123.13 209.216 124.666 210.352 126.458 211.248L122.57 216.336C120.586 215.312 118.858 213.968 117.386 212.304C115.946 210.608 114.762 208.672 113.834 206.496C112.906 204.288 112.202 201.936 111.722 199.44C111.274 196.912 111.05 194.32 111.05 191.664V185.232ZM128.186 181.824H134.618V226.272H128.186V181.824ZM133.226 198.912H141.05V204.192H133.226V198.912ZM152.806 208.848H159.19V216.048H152.806V208.848ZM172.246 181.824H178.63V226.272H172.246V181.824ZM142.534 218.88L141.766 213.696C144.454 213.696 147.382 213.68 150.55 213.648C153.718 213.616 156.966 213.504 160.294 213.312C163.654 213.12 166.886 212.816 169.99 212.4L170.422 217.008C167.19 217.584 163.926 218.016 160.63 218.304C157.366 218.56 154.198 218.72 151.126 218.784C148.054 218.848 145.19 218.88 142.534 218.88ZM142.63 186.72H169.414V191.712H142.63V186.72ZM156.022 193.44C158.198 193.44 160.118 193.792 161.782 194.496C163.446 195.2 164.742 196.176 165.67 197.424C166.63 198.672 167.11 200.128 167.11 201.792C167.11 203.424 166.63 204.88 165.67 206.16C164.742 207.408 163.446 208.384 161.782 209.088C160.118 209.792 158.198 210.144 156.022 210.144C153.846 210.144 151.926 209.792 150.262 209.088C148.598 208.384 147.286 207.408 146.326 206.16C145.398 204.88 144.934 203.424 144.934 201.792C144.934 200.128 145.398 198.672 146.326 197.424C147.286 196.176 148.598 195.2 150.262 194.496C151.926 193.792 153.846 193.44 156.022 193.44ZM156.022 198.24C154.55 198.24 153.35 198.56 152.422 199.2C151.494 199.808 151.03 200.672 151.03 201.792C151.03 202.944 151.494 203.824 152.422 204.432C153.35 205.04 154.55 205.344 156.022 205.344C157.494 205.344 158.694 205.04 159.622 204.432C160.55 203.824 161.014 202.944 161.014 201.792C161.014 200.672 160.55 199.808 159.622 199.2C158.694 198.56 157.494 198.24 156.022 198.24ZM152.806 181.968H159.238V189.6H152.806V181.968ZM205.362 197.616C206.514 197.616 207.538 197.904 208.434 198.48C209.362 199.024 210.098 199.76 210.642 200.688C211.218 201.584 211.506 202.608 211.506 203.76C211.506 204.88 211.218 205.904 210.642 206.832C210.098 207.76 209.362 208.512 208.434 209.088C207.538 209.632 206.514 209.904 205.362 209.904C204.242 209.904 203.218 209.632 202.29 209.088C201.362 208.512 200.61 207.76 200.034 206.832C199.49 205.904 199.218 204.88 199.218 203.76C199.218 202.608 199.49 201.584 200.034 200.688C200.61 199.76 201.362 199.024 202.29 198.48C203.218 197.904 204.242 197.616 205.362 197.616ZM228.882 203.76H269.154V208.8H228.882V203.76ZM246.354 206.928H252.738V216.288H246.354V206.928ZM233.826 183.648H264.018V200.208H233.826V183.648ZM257.73 188.64H240.114V195.168H257.73V188.64ZM233.538 220.368H264.69V225.504H233.538V220.368ZM233.538 212.544H239.922V222.096H233.538V212.544ZM280.958 208.128H287.342V215.28H280.958V208.128ZM299.63 181.824H306.014V226.272H299.63V181.824ZM303.806 199.872H311.63V205.104H303.806V199.872ZM270.974 218.88L270.206 213.696C272.766 213.696 275.566 213.68 278.606 213.648C281.678 213.616 284.814 213.504 288.014 213.312C291.246 213.12 294.366 212.832 297.374 212.448L297.854 217.056C294.75 217.632 291.598 218.064 288.398 218.352C285.198 218.608 282.11 218.768 279.134 218.832C276.19 218.864 273.47 218.88 270.974 218.88ZM271.022 186.672H297.182V191.664H271.022V186.672ZM284.126 193.44C286.27 193.44 288.158 193.792 289.79 194.496C291.422 195.2 292.702 196.176 293.63 197.424C294.558 198.672 295.022 200.128 295.022 201.792C295.022 203.424 294.558 204.88 293.63 206.16C292.702 207.408 291.422 208.384 289.79 209.088C288.158 209.792 286.27 210.144 284.126 210.144C282.014 210.144 280.142 209.792 278.51 209.088C276.878 208.384 275.598 207.408 274.67 206.16C273.742 204.88 273.278 203.424 273.278 201.792C273.278 200.128 273.742 198.672 274.67 197.424C275.598 196.176 276.878 195.2 278.51 194.496C280.142 193.792 282.014 193.44 284.126 193.44ZM284.126 198.24C282.686 198.24 281.518 198.56 280.622 199.2C279.758 199.808 279.326 200.672 279.326 201.792C279.326 202.944 279.758 203.824 280.622 204.432C281.518 205.04 282.686 205.344 284.126 205.344C285.598 205.344 286.766 205.04 287.63 204.432C288.526 203.824 288.974 202.944 288.974 201.792C288.974 200.672 288.526 199.808 287.63 199.2C286.766 198.56 285.598 198.24 284.126 198.24ZM280.958 182.016H287.342V190.416H280.958V182.016Z" fill="white"/>
</g>
<defs>
<clipPath id="clip0_169_967">
<path d="M0.849609 205C0.849609 91.7816 92.6312 0 205.85 0C319.068 0 410.85 91.7816 410.85 205C410.85 318.218 319.068 410 205.85 410C92.6312 410 0.849609 318.218 0.849609 205Z" fill="white"/>
</clipPath>
</defs>
</svg>
