<svg width="411" height="410" viewBox="0 0 411 410" fill="none" xmlns="http://www.w3.org/2000/svg">
<g clip-path="url(#clip0_374_227)">
<path d="M0.849609 205C0.849609 91.7816 92.6312 0 205.85 0C319.068 0 410.85 91.7816 410.85 205C410.85 318.218 319.068 410 205.85 410C92.6312 410 0.849609 318.218 0.849609 205Z" fill="white"/>
<path d="M0.849609 205C0.849609 91.7816 92.6312 0 205.85 0C319.068 0 410.85 91.7816 410.85 205C410.85 318.218 319.068 410 205.85 410C92.6312 410 0.849609 318.218 0.849609 205Z" fill="#976FC2"/>
<path fill-rule="evenodd" clip-rule="evenodd" d="M224.697 103.078C226.373 101.397 228.511 100.251 230.839 99.7848C233.167 99.319 235.581 99.5543 237.776 100.461C239.97 101.367 241.846 102.905 243.167 104.878C244.487 106.851 245.192 109.172 245.194 111.546C245.195 113.92 244.492 116.242 243.173 118.216C241.855 120.191 239.98 121.73 237.787 122.638C235.593 123.547 233.179 123.785 230.851 123.321C228.522 122.858 226.383 121.714 224.705 120.035C222.459 117.783 221.198 114.732 221.198 111.552C221.198 108.372 222.459 105.321 224.705 103.069L224.697 103.078ZM253.472 131.853C257.486 127.841 260.22 122.728 261.328 117.162C262.435 111.596 261.868 105.827 259.697 100.583C257.526 95.3394 253.849 90.8574 249.13 87.7037C244.412 84.55 238.864 82.8664 233.189 82.8656C227.514 82.8648 221.966 84.547 217.246 87.6993C212.527 90.8517 208.849 95.3327 206.676 100.576C204.503 105.819 203.934 111.588 205.041 117.154C206.147 122.721 208.879 127.834 212.892 131.848C218.276 137.223 225.573 140.243 233.181 140.244C240.789 140.245 248.087 137.227 253.472 131.853ZM300.327 137.848C299.209 135.91 298.656 133.698 298.729 131.462C298.802 129.226 299.499 127.055 300.742 125.195C301.984 123.334 303.723 121.858 305.76 120.934C307.797 120.009 310.053 119.673 312.271 119.964C314.489 120.254 316.582 121.159 318.313 122.577C320.044 123.994 321.344 125.868 322.066 127.985C322.788 130.103 322.903 132.38 322.398 134.56C321.893 136.739 320.789 138.734 319.21 140.319C318.468 141.068 317.632 141.716 316.722 142.248C313.967 143.837 310.694 144.268 307.622 143.445C304.55 142.622 301.93 140.613 300.339 137.859L300.327 137.848ZM303.288 159.56C307.846 160.78 312.633 160.857 317.228 159.785C321.822 158.712 326.081 156.524 329.627 153.412C333.174 150.301 335.898 146.363 337.559 141.948C339.221 137.532 339.767 132.775 339.151 128.098C338.535 123.421 336.775 118.967 334.027 115.133C331.279 111.298 327.628 108.2 323.397 106.113C319.166 104.027 314.485 103.015 309.77 103.169C305.055 103.323 300.451 104.637 296.365 106.996C294.18 108.259 292.17 109.801 290.384 111.583C286.835 115.15 284.285 119.587 282.992 124.45C281.698 129.313 281.705 134.43 283.012 139.29C284.319 144.149 286.88 148.58 290.439 152.137C293.997 155.695 298.429 158.255 303.288 159.56ZM371.573 191.815C372.293 194.492 372.062 197.336 370.92 199.862C369.778 202.388 367.796 204.441 365.311 205.669C362.826 206.898 359.991 207.227 357.291 206.601C354.59 205.974 352.19 204.431 350.5 202.233C348.81 200.036 347.934 197.32 348.021 194.549C348.108 191.778 349.153 189.123 350.978 187.037C352.803 184.95 355.295 183.56 358.03 183.105C360.764 182.649 363.572 183.156 365.975 184.538C367.344 185.32 368.543 186.366 369.504 187.615C370.465 188.864 371.168 190.292 371.573 191.815ZM352.559 167.203C346.146 168.922 340.528 172.812 336.662 178.209C332.796 183.606 330.92 190.177 331.356 196.801C331.791 203.426 334.51 209.695 339.05 214.539C343.589 219.384 349.668 222.505 356.251 223.369C362.833 224.234 369.512 222.79 375.149 219.283C380.785 215.775 385.032 210.422 387.164 204.134C389.296 197.847 389.182 191.015 386.841 184.802C384.5 178.589 380.077 173.381 374.327 170.063C371.067 168.173 367.465 166.947 363.729 166.456C359.993 165.965 356.196 166.219 352.559 167.203ZM330.962 256.158C332.64 254.481 334.777 253.34 337.104 252.877C339.431 252.415 341.843 252.653 344.035 253.562C346.227 254.47 348.1 256.008 349.417 257.981C350.735 259.954 351.438 262.273 351.438 264.646C351.437 267.018 350.734 269.337 349.415 271.31C348.097 273.282 346.223 274.82 344.031 275.727C341.839 276.635 339.427 276.873 337.101 276.41C334.774 275.947 332.636 274.804 330.959 273.127C328.711 270.875 327.449 267.823 327.45 264.642C327.45 261.461 328.713 258.409 330.962 256.158ZM359.729 284.926C363.74 280.912 366.471 275.8 367.577 270.234C368.682 264.668 368.113 258.9 365.94 253.658C363.767 248.416 360.089 243.936 355.37 240.785C350.651 237.633 345.104 235.952 339.43 235.953C333.756 235.954 328.209 237.638 323.492 240.791C318.774 243.945 315.098 248.426 312.927 253.669C310.757 258.912 310.189 264.68 311.297 270.246C312.405 275.811 315.138 280.922 319.151 284.934C324.537 290.307 331.834 293.323 339.442 293.322C347.049 293.32 354.345 290.301 359.729 284.926ZM119.554 181.482L110.811 159.44L132.862 168.174C148.198 174.259 156.463 181.952 157.409 191.042C157.795 193.093 157.676 195.208 157.06 197.202C156.444 199.197 155.351 201.011 153.875 202.487C152.399 203.963 150.585 205.056 148.59 205.672C146.596 206.288 144.481 206.407 142.43 206.02C133.337 205.077 125.641 196.816 119.562 181.474L119.554 181.482ZM179.079 134.798C194.139 147.465 206.44 163.086 215.223 180.697C224.005 198.308 229.081 217.533 230.137 237.184C239.941 246.052 250.013 255.632 260.058 265.677C282.425 287.716 303.236 311.28 322.342 336.2C342.329 327.65 360.142 314.724 374.468 298.373C388.794 282.022 399.267 262.665 405.115 241.727C410.963 220.79 412.038 198.807 408.259 177.399C404.479 155.991 395.943 135.705 383.28 118.035C370.616 100.365 354.148 85.7637 335.09 75.3062C316.032 64.8488 294.869 58.8024 273.163 57.613C251.457 56.4235 229.76 60.1214 209.674 68.4338C189.587 76.7461 171.622 89.4611 157.104 105.641C156.118 106.744 155.389 108.052 154.97 109.471C154.55 110.889 154.451 112.383 154.678 113.845C154.905 115.306 155.454 116.699 156.284 117.924C157.114 119.148 158.206 120.173 159.48 120.925C166.387 125 172.945 129.642 179.084 134.803L179.079 134.798ZM307.705 344.512C320.5 361.461 325.571 371.149 327.584 376.212C322.526 374.194 312.843 369.123 295.892 356.325C272.256 338.008 249.862 318.143 228.855 296.862C218.833 286.84 209.301 276.815 200.511 267.101C206.974 261.606 212.983 255.597 218.478 249.134C228.195 257.922 238.22 267.454 248.242 277.476C269.52 298.485 289.384 320.879 307.705 344.512ZM165.673 214.302C167.107 212.865 168.38 211.275 169.468 209.561C182.15 218.394 194.337 227.918 205.974 238.09C200.933 244.039 195.41 249.562 189.462 254.602C179.291 242.966 169.765 230.78 160.929 218.099C162.641 217.012 164.229 215.742 165.665 214.31L165.673 214.302ZM211.932 337.753C210.553 337.21 209.312 336.366 208.299 335.283C207.287 334.201 206.527 332.907 206.077 331.494C205.627 330.082 205.496 328.587 205.695 327.118C205.894 325.649 206.418 324.243 207.227 323.001C210.45 318.039 213.363 312.882 215.951 307.561C216.323 307.933 216.692 308.303 217.07 308.681C231.217 322.828 245.398 336.057 258.865 347.711C242.785 347.009 226.933 343.641 211.957 337.745L211.932 337.753ZM193.234 313.911C191.076 317.228 189.683 320.983 189.155 324.904C188.627 328.825 188.977 332.815 190.18 336.584C191.383 340.353 193.41 343.808 196.112 346.698C198.814 349.588 202.126 351.841 205.806 353.294C228.904 362.363 253.772 366.024 278.504 363.996C283.001 367.536 287.344 370.828 291.534 373.864C318.782 393.6 333.847 398.579 341.899 390.527C348.915 383.511 346.052 371.172 332.168 350.129C353.764 340.332 372.947 325.913 388.359 307.89C403.772 289.867 415.04 268.679 421.366 245.824C427.691 222.968 428.922 199.003 424.97 175.619C421.017 152.236 411.979 130.006 398.493 110.499C385.007 90.9927 367.402 74.6851 346.922 62.7286C326.442 50.7721 303.586 43.4583 279.969 41.3039C256.353 39.1495 232.551 42.2071 210.246 50.2606C187.94 58.3141 167.675 71.1671 150.882 87.9117C148.758 90.0359 146.676 92.2356 144.661 94.4913C142.02 97.4345 140.067 100.928 138.941 104.718C137.816 108.509 137.546 112.502 138.152 116.409C138.759 120.316 140.226 124.04 142.447 127.311C144.668 130.582 147.589 133.319 150.997 135.324C166.534 144.477 179.947 156.828 190.348 171.559C200.749 186.289 207.899 203.063 211.325 220.767C199.526 210.655 187.125 201.268 174.189 192.66C174.186 191.544 174.125 190.43 174.007 189.321C172.367 173.548 160.593 161.214 139.024 152.659L99.0147 136.796C97.4996 136.194 95.8415 136.049 94.2449 136.379C92.6484 136.708 91.1833 137.498 90.0306 138.651C88.8779 139.804 88.0879 141.269 87.7582 142.865C87.4286 144.462 87.5736 146.12 88.1755 147.635L104.047 187.653C112.602 209.222 124.936 220.996 140.709 222.636C141.836 222.744 142.95 222.804 144.051 222.815C161.723 248.477 181.602 272.547 203.46 294.752C200.602 301.416 197.178 307.823 193.226 313.903L193.234 313.911Z" fill="#7D54AA"/>
<path d="M117.434 191.568H124.874V196.752H117.434V191.568ZM117.434 205.344H124.874V210.48H117.434V205.344ZM131.882 181.776H137.978V226.224H131.882V181.776ZM123.05 182.496H129.002V224.256H123.05V182.496ZM109.802 184.896C111.754 184.896 113.45 185.552 114.89 186.864C116.362 188.144 117.482 190 118.25 192.432C119.05 194.832 119.45 197.712 119.45 201.072C119.45 204.4 119.05 207.28 118.25 209.712C117.482 212.144 116.362 214.016 114.89 215.328C113.45 216.608 111.738 217.248 109.754 217.248C107.834 217.248 106.138 216.608 104.666 215.328C103.226 214.016 102.106 212.144 101.306 209.712C100.538 207.28 100.154 204.4 100.154 201.072C100.154 197.712 100.538 194.832 101.306 192.432C102.106 190 103.226 188.144 104.666 186.864C106.138 185.552 107.85 184.896 109.802 184.896ZM109.802 190.944C108.97 190.944 108.266 191.312 107.69 192.048C107.114 192.784 106.666 193.904 106.346 195.408C106.058 196.88 105.914 198.768 105.914 201.072C105.914 203.312 106.058 205.184 106.346 206.688C106.666 208.192 107.114 209.328 107.69 210.096C108.266 210.832 108.97 211.2 109.802 211.2C110.634 211.2 111.338 210.832 111.914 210.096C112.49 209.328 112.938 208.192 113.258 206.688C113.578 205.184 113.738 203.312 113.738 201.072C113.738 198.768 113.578 196.88 113.258 195.408C112.938 193.904 112.49 192.784 111.914 192.048C111.338 191.312 110.634 190.944 109.802 190.944ZM158.374 182.064H163.798V182.88C163.798 184.384 163.526 185.808 162.982 187.152C162.47 188.464 161.702 189.696 160.678 190.848C159.686 192 158.454 193.024 156.982 193.92C155.51 194.784 153.814 195.52 151.894 196.128C150.006 196.704 147.91 197.12 145.606 197.376L143.494 192.624C145.51 192.4 147.318 192.064 148.918 191.616C150.518 191.168 151.91 190.624 153.094 189.984C154.278 189.344 155.254 188.64 156.022 187.872C156.822 187.072 157.414 186.256 157.798 185.424C158.182 184.56 158.374 183.712 158.374 182.88V182.064ZM159.526 182.064H164.902V182.88C164.902 183.712 165.094 184.56 165.478 185.424C165.862 186.256 166.438 187.072 167.206 187.872C168.006 188.64 168.998 189.344 170.182 189.984C171.398 190.624 172.79 191.168 174.358 191.616C175.958 192.064 177.766 192.4 179.782 192.624L177.67 197.376C175.366 197.12 173.254 196.704 171.334 196.128C169.446 195.52 167.766 194.784 166.294 193.92C164.822 193.024 163.59 192 162.598 190.848C161.606 189.696 160.838 188.464 160.294 187.152C159.782 185.808 159.526 184.384 159.526 182.88V182.064ZM158.422 203.136H164.758V209.328H158.422V203.136ZM141.526 199.2H181.75V204.24H141.526V199.2ZM146.134 207.072H176.854V218.64H152.518V222.48H146.182V214.176H170.566V211.824H146.134V207.072ZM146.182 221.136H178.054V225.984H146.182V221.136ZM205.362 197.616C206.514 197.616 207.538 197.904 208.434 198.48C209.362 199.024 210.098 199.76 210.642 200.688C211.218 201.584 211.506 202.608 211.506 203.76C211.506 204.88 211.218 205.904 210.642 206.832C210.098 207.76 209.362 208.512 208.434 209.088C207.538 209.632 206.514 209.904 205.362 209.904C204.242 209.904 203.218 209.632 202.29 209.088C201.362 208.512 200.61 207.76 200.034 206.832C199.49 205.904 199.218 204.88 199.218 203.76C199.218 202.608 199.49 201.584 200.034 200.688C200.61 199.76 201.362 199.024 202.29 198.48C203.218 197.904 204.242 197.616 205.362 197.616ZM228.882 203.76H269.154V208.8H228.882V203.76ZM246.354 206.928H252.738V216.288H246.354V206.928ZM233.826 183.648H264.018V200.208H233.826V183.648ZM257.73 188.64H240.114V195.168H257.73V188.64ZM233.538 220.368H264.69V225.504H233.538V220.368ZM233.538 212.544H239.922V222.096H233.538V212.544ZM270.686 185.664H296.798V190.704H270.686V185.664ZM283.742 192.096C285.886 192.096 287.774 192.448 289.406 193.152C291.07 193.856 292.366 194.816 293.294 196.032C294.222 197.248 294.686 198.688 294.686 200.352C294.686 201.952 294.222 203.376 293.294 204.624C292.366 205.84 291.07 206.8 289.406 207.504C287.774 208.176 285.886 208.512 283.742 208.512C281.63 208.512 279.742 208.176 278.078 207.504C276.414 206.8 275.118 205.84 274.19 204.624C273.262 203.376 272.798 201.952 272.798 200.352C272.798 198.688 273.262 197.248 274.19 196.032C275.118 194.816 276.414 193.856 278.078 193.152C279.742 192.448 281.63 192.096 283.742 192.096ZM283.742 196.944C282.334 196.944 281.182 197.232 280.286 197.808C279.39 198.352 278.942 199.2 278.942 200.352C278.942 201.44 279.39 202.272 280.286 202.848C281.182 203.424 282.334 203.712 283.742 203.712C285.182 203.712 286.334 203.424 287.198 202.848C288.094 202.272 288.542 201.44 288.542 200.352C288.542 199.2 288.094 198.352 287.198 197.808C286.334 197.232 285.182 196.944 283.742 196.944ZM299.246 181.824H305.63V209.664H299.246V181.824ZM303.902 193.248H311.534V198.48H303.902V193.248ZM275.966 211.536H305.63V226.272H299.246V216.576H275.966V211.536ZM280.574 181.536H286.91V188.592H280.574V181.536Z" fill="white"/>
</g>
<defs>
<clipPath id="clip0_374_227">
<path d="M0.849609 205C0.849609 91.7816 92.6312 0 205.85 0C319.068 0 410.85 91.7816 410.85 205C410.85 318.218 319.068 410 205.85 410C92.6312 410 0.849609 318.218 0.849609 205Z" fill="white"/>
</clipPath>
</defs>
</svg>
