<svg width="411" height="410" viewBox="0 0 411 410" fill="none" xmlns="http://www.w3.org/2000/svg">
<g clip-path="url(#clip0_169_977)">
<path d="M0.849609 205C0.849609 91.7816 92.6312 0 205.85 0C319.068 0 410.85 91.7816 410.85 205C410.85 318.218 319.068 410 205.85 410C92.6312 410 0.849609 318.218 0.849609 205Z" fill="white"/>
<path d="M0.849609 205C0.849609 91.7816 92.6312 0 205.85 0C319.068 0 410.85 91.7816 410.85 205C410.85 318.218 319.068 410 205.85 410C92.6312 410 0.849609 318.218 0.849609 205Z" fill="#E6A2A3"/>
<path d="M418.586 165.514C417.435 161.967 414.359 159.376 410.668 158.839L384.125 154.978L372.254 130.922C368.956 124.221 357.949 124.221 354.65 130.922L342.779 154.978L316.236 158.839C312.533 159.376 309.47 161.967 308.318 165.514C307.166 169.074 308.122 172.974 310.805 175.579L330.018 194.295L325.477 220.746C324.849 224.424 326.354 228.154 329.377 230.34C332.414 232.552 336.419 232.814 339.717 231.099L363.459 218.613L387.201 231.099C388.641 231.858 390.198 232.225 391.769 232.225C393.797 232.225 395.826 231.597 397.541 230.34C400.564 228.154 402.082 224.424 401.441 220.746L396.899 194.295L416.113 175.579C418.796 172.974 419.751 169.074 418.6 165.514H418.586ZM379.492 183.838C377.175 186.089 376.128 189.335 376.665 192.528L378.707 204.452L368 198.824C366.574 198.065 365.003 197.698 363.433 197.698C361.862 197.698 360.291 198.078 358.865 198.824L348.159 204.452L350.2 192.528C350.75 189.335 349.69 186.089 347.373 183.838L338.709 175.396L350.685 173.655C353.878 173.184 356.653 171.181 358.066 168.289L363.42 157.439L368.773 168.289C370.199 171.181 372.961 173.197 376.154 173.655L388.13 175.396L379.466 183.838H379.492ZM351.038 284.787C307.035 275.874 275.1 236.832 275.1 191.913C275.1 158.538 293.018 127.244 321.851 110.229C327.833 106.709 330.974 100.021 329.861 93.2016C328.775 86.6313 323.88 81.4876 317.349 80.1133C295.007 75.4016 272.378 76.802 250.128 84.3016C206.282 99.0782 173.117 137.963 165.63 183.38C159.439 220.956 169.831 258.925 194.123 287.536C218.441 316.186 253.91 332.612 291.46 332.612C314.417 332.612 336.929 326.434 356.574 314.746C362.307 311.317 365.291 304.851 364.166 298.268C363.001 291.449 357.831 286.148 351.038 284.787ZM291.46 312.979C259.695 312.979 229.671 299.08 209.109 274.827C188.548 250.601 179.765 218.43 185.014 186.56C191.322 148.211 219.357 115.386 256.397 102.9C268.032 98.9866 279.76 97.0233 291.46 97.0233C295.91 97.0233 300.347 97.2982 304.784 97.8741C274.171 119.142 255.468 154.441 255.468 191.913C255.468 243.258 290.06 288.269 338.853 302.024C324.168 309.21 307.952 312.979 291.46 312.979Z" fill="#C67274"/>
<path d="M116.618 197.712H123.002V205.68H116.618V197.712ZM99.7696 203.088H139.994V208.128H99.7696V203.088ZM119.786 210.576C124.618 210.576 128.394 211.264 131.114 212.64C133.866 213.984 135.242 215.92 135.242 218.448C135.242 220.944 133.866 222.864 131.114 224.208C128.394 225.584 124.618 226.272 119.786 226.272C114.954 226.272 111.178 225.584 108.458 224.208C105.738 222.864 104.378 220.944 104.378 218.448C104.378 215.92 105.738 213.984 108.458 212.64C111.178 211.264 114.954 210.576 119.786 210.576ZM119.786 215.376C116.81 215.376 114.57 215.632 113.066 216.144C111.562 216.624 110.81 217.392 110.81 218.448C110.81 219.504 111.562 220.288 113.066 220.8C114.57 221.28 116.81 221.52 119.786 221.52C122.794 221.52 125.034 221.28 126.506 220.8C128.01 220.288 128.762 219.504 128.762 218.448C128.762 217.392 128.01 216.624 126.506 216.144C125.034 215.632 122.794 215.376 119.786 215.376ZM115.514 186H121.178V187.056C121.178 188.4 120.938 189.68 120.458 190.896C119.978 192.112 119.258 193.248 118.298 194.304C117.37 195.328 116.202 196.256 114.794 197.088C113.386 197.92 111.754 198.608 109.898 199.152C108.042 199.664 105.978 200.032 103.706 200.256L101.498 195.264C103.45 195.104 105.178 194.832 106.682 194.448C108.218 194.032 109.53 193.552 110.618 193.008C111.738 192.464 112.65 191.872 113.354 191.232C114.09 190.56 114.634 189.872 114.986 189.168C115.338 188.464 115.514 187.76 115.514 187.056V186ZM118.634 186H124.25V187.056C124.25 187.76 124.426 188.48 124.778 189.216C125.13 189.92 125.658 190.592 126.362 191.232C127.098 191.872 128.026 192.464 129.146 193.008C130.266 193.552 131.578 194.032 133.082 194.448C134.618 194.832 136.362 195.104 138.314 195.264L136.106 200.256C133.802 200.032 131.722 199.664 129.866 199.152C128.042 198.608 126.426 197.936 125.018 197.136C123.61 196.304 122.426 195.376 121.466 194.352C120.538 193.296 119.834 192.16 119.354 190.944C118.874 189.696 118.634 188.4 118.634 187.056V186ZM103.466 183.648H136.394V188.688H103.466V183.648ZM145.462 185.568H173.59V190.656H145.462V185.568ZM141.574 215.712H181.798V220.896H141.574V215.712ZM150.022 201.744H156.31V217.392H150.022V201.744ZM171.766 185.568H178.15V189.888C178.15 191.68 178.118 193.6 178.054 195.648C178.022 197.664 177.894 199.888 177.67 202.32C177.478 204.752 177.126 207.456 176.614 210.432L170.278 209.808C171.014 205.584 171.446 201.872 171.574 198.672C171.702 195.44 171.766 192.512 171.766 189.888V185.568ZM161.014 201.744H167.254V217.392H161.014V201.744ZM205.362 197.616C206.514 197.616 207.538 197.904 208.434 198.48C209.362 199.024 210.098 199.76 210.642 200.688C211.218 201.584 211.506 202.608 211.506 203.76C211.506 204.88 211.218 205.904 210.642 206.832C210.098 207.76 209.362 208.512 208.434 209.088C207.538 209.632 206.514 209.904 205.362 209.904C204.242 209.904 203.218 209.632 202.29 209.088C201.362 208.512 200.61 207.76 200.034 206.832C199.49 205.904 199.218 204.88 199.218 203.76C199.218 202.608 199.49 201.584 200.034 200.688C200.61 199.76 201.362 199.024 202.29 198.48C203.218 197.904 204.242 197.616 205.362 197.616ZM238.866 188.976H244.05V190.608C244.05 192.944 243.586 195.136 242.658 197.184C241.73 199.2 240.322 200.944 238.434 202.416C236.546 203.856 234.162 204.912 231.282 205.584L228.498 200.688C230.322 200.272 231.874 199.712 233.154 199.008C234.466 198.304 235.538 197.504 236.37 196.608C237.234 195.712 237.858 194.752 238.242 193.728C238.658 192.704 238.866 191.664 238.866 190.608V188.976ZM240.114 188.976H245.25V190.608C245.25 191.6 245.458 192.576 245.874 193.536C246.29 194.464 246.93 195.36 247.794 196.224C248.658 197.056 249.73 197.808 251.01 198.48C252.322 199.12 253.858 199.616 255.618 199.968L252.978 204.816C250.834 204.336 248.946 203.648 247.314 202.752C245.714 201.824 244.37 200.736 243.282 199.488C242.226 198.24 241.426 196.864 240.882 195.36C240.37 193.824 240.114 192.24 240.114 190.608V188.976ZM230.13 185.472H254.034V190.512H230.13V185.472ZM238.866 181.632H245.25V188.304H238.866V181.632ZM252.93 192.096H263.922V197.232H252.93V192.096ZM259.698 181.824H266.082V204.816H259.698V181.824ZM236.706 206.496H266.082V218.4H243.09V223.92H236.802V213.84H259.794V211.344H236.706V206.496ZM236.802 221.136H267.378V225.984H236.802V221.136ZM270.686 185.664H296.798V190.704H270.686V185.664ZM283.742 192.096C285.886 192.096 287.774 192.448 289.406 193.152C291.07 193.856 292.366 194.816 293.294 196.032C294.222 197.248 294.686 198.688 294.686 200.352C294.686 201.952 294.222 203.376 293.294 204.624C292.366 205.84 291.07 206.8 289.406 207.504C287.774 208.176 285.886 208.512 283.742 208.512C281.63 208.512 279.742 208.176 278.078 207.504C276.414 206.8 275.118 205.84 274.19 204.624C273.262 203.376 272.798 201.952 272.798 200.352C272.798 198.688 273.262 197.248 274.19 196.032C275.118 194.816 276.414 193.856 278.078 193.152C279.742 192.448 281.63 192.096 283.742 192.096ZM283.742 196.944C282.334 196.944 281.182 197.232 280.286 197.808C279.39 198.352 278.942 199.2 278.942 200.352C278.942 201.44 279.39 202.272 280.286 202.848C281.182 203.424 282.334 203.712 283.742 203.712C285.182 203.712 286.334 203.424 287.198 202.848C288.094 202.272 288.542 201.44 288.542 200.352C288.542 199.2 288.094 198.352 287.198 197.808C286.334 197.232 285.182 196.944 283.742 196.944ZM299.246 181.824H305.63V209.664H299.246V181.824ZM303.902 193.248H311.534V198.48H303.902V193.248ZM275.966 211.536H305.63V226.272H299.246V216.576H275.966V211.536ZM280.574 181.536H286.91V188.592H280.574V181.536Z" fill="white"/>
</g>
<defs>
<clipPath id="clip0_169_977">
<path d="M0.849609 205C0.849609 91.7816 92.6312 0 205.85 0C319.068 0 410.85 91.7816 410.85 205C410.85 318.218 319.068 410 205.85 410C92.6312 410 0.849609 318.218 0.849609 205Z" fill="white"/>
</clipPath>
</defs>
</svg>
