<svg width="30" height="30" viewBox="0 0 30 30" fill="none" xmlns="http://www.w3.org/2000/svg">
<path d="M27.499 12.4999H8.51607L16.7695 4.2817C17.2405 3.81133 17.505 3.17337 17.505 2.50816C17.505 1.84296 17.2405 1.205 16.7695 0.734624C16.2985 0.264252 15.6598 0 14.9938 0C14.3277 0 13.689 0.264252 13.218 0.734624L0.71283 13.2243C0.485134 13.4619 0.306647 13.742 0.187612 14.0487C-0.0625373 14.6568 -0.0625373 15.3389 0.187612 15.9471C0.306647 16.2537 0.485134 16.5338 0.71283 16.7714L13.218 29.2611C13.4505 29.4952 13.7271 29.6811 14.0319 29.8079C14.3367 29.9347 14.6636 30 14.9938 30C15.3239 30 15.6508 29.9347 15.9556 29.8079C16.2604 29.6811 16.537 29.4952 16.7695 29.2611C17.0039 29.0289 17.19 28.7526 17.317 28.4482C17.4439 28.1438 17.5093 27.8173 17.5093 27.4876C17.5093 27.1578 17.4439 26.8313 17.317 26.5269C17.19 26.2225 17.0039 25.9463 16.7695 25.714L8.51607 17.4958H27.499C28.1623 17.4958 28.7984 17.2326 29.2675 16.7642C29.7365 16.2957 30 15.6604 30 14.9979C30 14.3354 29.7365 13.7 29.2675 13.2316C28.7984 12.7631 28.1623 12.4999 27.499 12.4999Z" fill="white"/>
</svg>
