<svg width="37" height="39" viewBox="0 0 37 39" fill="none" xmlns="http://www.w3.org/2000/svg">
<path d="M18.4999 26.0625C16.7595 26.0625 15.0903 25.3711 13.8596 24.1404C12.6288 22.9097 11.9374 21.2405 11.9374 19.5C11.9374 17.7595 12.6288 16.0903 13.8596 14.8596C15.0903 13.6289 16.7595 12.9375 18.4999 12.9375C20.2404 12.9375 21.9096 13.6289 23.1403 14.8596C24.371 16.0903 25.0624 17.7595 25.0624 19.5C25.0624 21.2405 24.371 22.9097 23.1403 24.1404C21.9096 25.3711 20.2404 26.0625 18.4999 26.0625ZM32.4312 21.3188C32.5062 20.7188 32.5624 20.1188 32.5624 19.5C32.5624 18.8813 32.5062 18.2625 32.4312 17.625L36.3874 14.5688C36.7437 14.2875 36.8374 13.7813 36.6124 13.3688L32.8624 6.88125C32.6374 6.46875 32.1312 6.3 31.7187 6.46875L27.0499 8.34375C26.0749 7.6125 25.0624 6.975 23.8812 6.50625L23.1874 1.5375C23.1494 1.31666 23.0343 1.11643 22.8627 0.972287C22.6911 0.828146 22.474 0.7494 22.2499 0.750003H14.7499C14.2812 0.750003 13.8874 1.0875 13.8124 1.5375L13.1187 6.50625C11.9374 6.975 10.9249 7.6125 9.94994 8.34375L5.28119 6.46875C4.86869 6.3 4.36244 6.46875 4.13744 6.88125L0.387443 13.3688C0.143693 13.7813 0.256193 14.2875 0.612443 14.5688L4.56869 17.625C4.49369 18.2625 4.43744 18.8813 4.43744 19.5C4.43744 20.1188 4.49369 20.7188 4.56869 21.3188L0.612443 24.4313C0.256193 24.7125 0.143693 25.2188 0.387443 25.6313L4.13744 32.1188C4.36244 32.5313 4.86869 32.6813 5.28119 32.5313L9.94994 30.6375C10.9249 31.3875 11.9374 32.025 13.1187 32.4938L13.8124 37.4625C13.8874 37.9125 14.2812 38.25 14.7499 38.25H22.2499C22.7187 38.25 23.1124 37.9125 23.1874 37.4625L23.8812 32.4938C25.0624 32.0063 26.0749 31.3875 27.0499 30.6375L31.7187 32.5313C32.1312 32.6813 32.6374 32.5313 32.8624 32.1188L36.6124 25.6313C36.8374 25.2188 36.7437 24.7125 36.3874 24.4313L32.4312 21.3188Z" fill="white"/>
</svg>
