<svg width="136" height="136" viewBox="0 0 136 136" fill="none" xmlns="http://www.w3.org/2000/svg">
<path d="M73.6967 38.7207L93.033 38.7207C105.717 38.7207 116 49.0033 116 61.6876L116 100.36C116 113.044 105.717 123.327 93.033 123.327H54.3605C41.6762 123.327 31.3936 113.044 31.3936 100.36L31.3936 88.7159" stroke="white" stroke-width="6.86136" stroke-linecap="round"/>
<path d="M56.7365 99.5782H49.561L62.6254 62.4688H70.9243L84.0069 99.5782H76.8314L66.9199 70.0791H66.6299L56.7365 99.5782ZM56.9721 85.028H76.5415V90.4277H56.9721V85.028Z" fill="white"/>
<path d="M95.6172 62.4688V99.5782H88.8947V62.4688H95.6172Z" fill="white"/>
<path d="M32.8292 55.3643C32.8292 55.3643 33.6217 61.9101 36.3671 64.6555C39.1125 67.4009 45.6583 68.1934 45.6583 68.1934C45.6583 68.1934 39.1125 68.9859 36.3671 71.7313C33.6217 74.4768 32.8292 81.0226 32.8292 81.0226C32.8292 81.0226 32.0367 74.4768 29.2912 71.7313C26.5458 68.9859 20 68.1934 20 68.1934C20 68.1934 26.5458 67.4009 29.2912 64.6555C32.0367 61.9101 32.8292 55.3643 32.8292 55.3643Z" fill="white"/>
<path d="M52.2752 29.0059C52.2752 29.0059 53.3088 37.5429 56.8893 41.1235C60.4699 44.704 69.0069 45.7376 69.0069 45.7376C69.0069 45.7376 60.4699 46.7712 56.8893 50.3517C53.3088 53.9323 52.2752 62.4693 52.2752 62.4693C52.2752 62.4693 51.2416 53.9323 47.6611 50.3517C44.0805 46.7712 35.5435 45.7376 35.5435 45.7376C35.5435 45.7376 44.0805 44.704 47.6611 41.1235C51.2416 37.5429 52.2752 29.0059 52.2752 29.0059Z" fill="white"/>
</svg>
