<svg width="112" height="109" viewBox="0 0 112 109" fill="none" xmlns="http://www.w3.org/2000/svg">
<path d="M58.9998 10.8145L80.3502 10.8145C94.3558 10.8145 105.71 22.2613 105.71 36.3818L105.71 79.433C105.71 93.5535 94.3558 105 80.3502 105H37.6493C23.6438 105 12.29 93.5535 12.29 79.433L12.29 66.4704" stroke="white" stroke-width="6.86136" stroke-linecap="round"/>
<path d="M41.4961 78.5631H33.5732L47.9985 37.252H57.1619L71.6072 78.5631H63.6843L52.7403 45.724H52.4202L41.4961 78.5631ZM41.7562 62.3654H63.3642V68.3765H41.7562V62.3654Z" fill="white"/>
<path d="M84.4269 37.252V78.5631H77.0042V37.252H84.4269Z" fill="white"/>
<path d="M14.1655 29.3428C14.1655 29.3428 15.0406 36.6298 18.072 39.686C21.1034 42.7423 28.3311 43.6245 28.3311 43.6245C28.3311 43.6245 21.1034 44.5068 18.072 47.563C15.0406 50.6193 14.1655 57.9063 14.1655 57.9063C14.1655 57.9063 13.2905 50.6193 10.2591 47.563C7.22768 44.5068 0 43.6245 0 43.6245C0 43.6245 7.22768 42.7423 10.2591 39.686C13.2905 36.6298 14.1655 29.3428 14.1655 29.3428Z" fill="white"/>
<path d="M35.6367 0C35.6367 0 36.778 9.50365 40.7315 13.4896C44.6851 17.4756 54.1114 18.6262 54.1114 18.6262C54.1114 18.6262 44.6851 19.7768 40.7315 23.7628C36.778 27.7488 35.6367 37.2524 35.6367 37.2524C35.6367 37.2524 34.4955 27.7488 30.542 23.7628C26.5884 19.7768 17.1621 18.6262 17.1621 18.6262C17.1621 18.6262 26.5884 17.4756 30.542 13.4896C34.4955 9.50365 35.6367 0 35.6367 0Z" fill="white"/>
</svg>
