<svg width="136" height="136" viewBox="0 0 136 136" fill="none" xmlns="http://www.w3.org/2000/svg">
<path d="M17.6597 69.1651L62.3198 35.6697C65.2852 33.4456 69.3552 33.419 72.3495 35.604L118.34 69.1651" stroke="white" stroke-width="8.43199" stroke-linecap="round"/>
<path d="M26.7148 76.7012V114.895C26.7148 119.552 30.49 123.327 35.1468 123.327H45.8064C50.4633 123.327 54.2384 119.553 54.2384 114.896C54.2384 108.591 54.2384 100.092 54.2384 94.28C54.2384 83.9781 63.2707 81.5674 68.0608 81.5674C72.851 81.5674 81.762 83.105 81.762 94.28C81.762 100.49 81.762 108.768 81.762 114.898C81.762 119.555 85.5371 123.327 90.1939 123.327H100.854C105.51 123.327 109.286 119.552 109.286 114.895V76.7012" stroke="white" stroke-width="8.43199" stroke-linecap="round"/>
</svg>
