<svg width="169" height="151" viewBox="0 0 169 151" fill="none" xmlns="http://www.w3.org/2000/svg">
<path d="M7 60.9619L75.8547 9.32046C80.4265 5.89155 86.7015 5.85045 91.3179 9.21918L162.224 60.9619" stroke="white" stroke-width="13" stroke-linecap="round"/>
<path d="M20.9609 72.5806V131.465C20.9609 138.645 26.7812 144.465 33.9609 144.465H50.3953C57.575 144.465 63.3953 138.647 63.3953 131.467C63.3953 121.747 63.3953 108.643 63.3953 99.6828C63.3953 83.7998 77.3209 80.0831 84.7061 80.0831C92.0912 80.0831 105.83 82.4537 105.83 99.6828C105.83 109.257 105.83 122.02 105.83 131.471C105.83 138.65 111.65 144.465 118.83 144.465H135.264C142.444 144.465 148.264 138.645 148.264 131.465V72.5806" stroke="white" stroke-width="13" stroke-linecap="round"/>
</svg>
