<svg width="110" height="98" viewBox="0 0 110 98" fill="none" xmlns="http://www.w3.org/2000/svg">
<path d="M4.21631 39.3975L48.8764 5.90211C51.8418 3.67807 55.9119 3.65141 58.9061 5.83642L104.897 39.3975" stroke="white" stroke-width="8.43199" stroke-linecap="round"/>
<path d="M13.2715 46.9336V85.1271C13.2715 89.784 17.0466 93.5591 21.7035 93.5591H32.363C37.0199 93.5591 40.795 89.785 40.795 85.1282C40.795 78.8237 40.795 70.3245 40.795 64.5125C40.795 54.2105 49.8274 51.7998 54.6175 51.7998C59.4076 51.7998 68.3186 53.3374 68.3186 64.5125C68.3186 70.7225 68.3186 79.0006 68.3186 85.1305C68.3186 89.7873 72.0937 93.5591 76.7506 93.5591H87.4102C92.067 93.5591 95.8422 89.784 95.8422 85.1271V46.9336" stroke="white" stroke-width="8.43199" stroke-linecap="round"/>
</svg>
