<svg width="40" height="40" viewBox="0 0 40 40" fill="none" xmlns="http://www.w3.org/2000/svg">
<path d="M4.05127 17.1971L17.8131 6.40515C18.9724 5.49606 20.5995 5.48527 21.7708 6.37892L35.9492 17.1971" stroke="white" stroke-width="3.23425" stroke-linecap="round"/>
<path d="M6.92041 19.6934V31.9045C6.92041 33.6907 8.36843 35.1387 10.1547 35.1387H12.4063C14.1925 35.1387 15.6405 33.6916 15.6405 31.9053C15.6405 29.8745 15.6405 27.3096 15.6405 25.5166C15.6405 22.104 18.5022 21.3054 20.0198 21.3054C21.5374 21.3054 24.3606 21.8147 24.3606 25.5166C24.3606 27.4284 24.3606 29.9318 24.3606 31.9059C24.3606 33.6922 25.8087 35.1387 27.5949 35.1387H29.8465C31.6327 35.1387 33.0808 33.6907 33.0808 31.9045V19.6934" stroke="white" stroke-width="3.23425" stroke-linecap="round"/>
</svg>
