<svg width="40" height="40" viewBox="0 0 40 40" fill="none" xmlns="http://www.w3.org/2000/svg">
<path d="M9.94324 24.563H6.04158C4.94236 24.563 4.05127 25.4541 4.05127 26.5533V32.1239C4.05127 33.2231 4.94236 34.1142 6.04157 34.1142H33.9589C35.0581 34.1142 35.9492 33.2231 35.9492 32.1239V26.5533C35.9492 25.4541 35.0581 24.563 33.9589 24.563H29.4477" stroke="white" stroke-width="3.23425" stroke-linecap="round"/>
<path d="M13.3038 19.4366C13.3038 17.4443 14.9189 15.8292 16.9112 15.8292H23.0892C25.0816 15.8292 26.6967 17.4443 26.6967 19.4366L23.4624 19.4366C23.4624 19.2305 23.2953 19.0634 23.0892 19.0634H16.9112C16.7051 19.0634 16.538 19.2305 16.538 19.4366L13.3038 19.4366ZM25.0795 35.1389H14.9209H25.0795ZM16.9112 35.1389C14.9189 35.1389 13.3038 33.5238 13.3038 31.5314V19.4366C13.3038 17.4443 14.9189 15.8292 16.9112 15.8292L16.9112 19.0634C16.7051 19.0634 16.538 19.2305 16.538 19.4366V33.1486C16.538 34.2478 16.7051 35.1389 16.9112 35.1389H16.9112ZM23.0892 15.8292C25.0816 15.8292 26.6967 17.4443 26.6967 19.4366V31.5314C26.6967 33.5238 25.0816 35.1389 23.0892 35.1389H23.0892C23.2953 35.1389 23.4624 34.2478 23.4624 33.1486V19.4366C23.4624 19.2305 23.2953 19.0634 23.0892 19.0634L23.0892 15.8292Z" fill="white"/>
<path d="M25.2431 8.61338C25.2501 8.57861 25.2534 8.54296 25.2557 8.50756C25.2704 8.27807 25.072 8.02785 24.8282 8.02785L22.0869 7.6732C21.9285 7.6527 21.7895 7.5574 21.7134 7.41698L20.4692 5.12321C20.4167 5.02639 20.3641 4.97798 20.2591 4.92956C19.9965 4.78433 19.6814 4.88115 19.5238 5.12321L18.3309 7.4105C18.2557 7.55466 18.1148 7.653 17.9535 7.67386L15.2173 8.02785C15.1 8.02785 15.0119 8.05466 14.9528 8.10828C14.9123 8.14505 14.8799 8.19068 14.8458 8.23343C14.6942 8.42345 14.713 8.67641 14.9022 8.85083L16.8469 10.5997C16.9764 10.7161 17.0356 10.8917 17.003 11.0627L16.539 13.5006C16.5332 13.5312 16.53 13.5624 16.5305 13.5936C16.5316 13.6748 16.5388 13.756 16.5828 13.8371C16.7403 14.0792 17.0555 14.176 17.318 14.0308L19.7783 12.8302C19.916 12.763 20.077 12.763 20.2147 12.8302L22.6095 13.9988C22.6529 14.02 22.6926 14.0508 22.7391 14.0638C22.7941 14.0792 22.8658 14.0792 22.9376 14.0792C22.9685 14.0792 22.9812 14.0792 22.9971 14.0792C23.0274 14.0792 23.0577 14.077 23.0869 14.0691C23.3283 14.003 23.5123 13.7722 23.4627 13.4983L22.99 11.0143C22.9574 10.8433 23.0166 10.6677 23.1461 10.5513L25.0348 8.8528C25.0719 8.81941 25.1161 8.79446 25.1544 8.76239C25.2022 8.72239 25.2317 8.66942 25.2431 8.61338Z" fill="white"/>
</svg>
