<svg width="111" height="107" viewBox="0 0 111 107" fill="none" xmlns="http://www.w3.org/2000/svg">
<path d="M23.1181 68.5693H9.40474C6.53898 68.5693 4.21582 70.8925 4.21582 73.7583V96.6223C4.21582 99.488 6.53898 101.811 9.40473 101.811H101.36C104.226 101.811 106.549 99.488 106.549 96.6223V73.7583C106.549 70.8925 104.226 68.5693 101.36 68.5693H85.6913" stroke="white" stroke-width="8.43199" stroke-linecap="round"/>
<path d="M34.8719 48.9897C34.8719 43.7955 39.0826 39.5848 44.2768 39.5848H66.4893C71.6835 39.5848 75.8942 43.7955 75.8942 48.9897H67.4622C67.4622 48.4524 67.0266 48.0168 66.4893 48.0168H44.2768C43.7395 48.0168 43.3039 48.4524 43.3039 48.9897H34.8719ZM71.6782 105.378H39.0879H71.6782ZM44.2768 105.378C39.0826 105.378 34.8719 101.167 34.8719 95.9727V48.9897C34.8719 43.7955 39.0826 39.5848 44.2768 39.5848V48.0168C43.7395 48.0168 43.3039 48.4524 43.3039 48.9897V100.189C43.3039 103.055 43.7395 105.378 44.2768 105.378ZM66.4893 39.5848C71.6835 39.5848 75.8942 43.7955 75.8942 48.9897V95.9727C75.8942 101.167 71.6835 105.378 66.4893 105.378C67.0266 105.378 67.4622 103.055 67.4622 100.189V48.9897C67.4622 48.4524 67.0266 48.0168 66.4893 48.0168V39.5848Z" fill="white"/>
<path d="M72.2109 13.0022C72.2217 12.9174 72.2295 12.8321 72.238 12.7471C72.32 11.9334 71.6716 11.0207 70.8711 11.0207L61.9424 9.76755C61.5198 9.70823 61.1533 9.4448 60.9625 9.06305L56.8866 0.911441C56.7182 0.574466 56.5497 0.405978 56.2127 0.23749C55.3703 -0.267973 54.3593 0.0690025 53.8539 0.911441L49.9426 9.04679C49.7546 9.43786 49.3835 9.70903 48.9538 9.76934L40.0379 11.0207C39.6294 11.0207 39.3309 11.1307 39.1425 11.3508C39.0518 11.4567 38.9734 11.5741 38.8867 11.6832C38.3568 12.3499 38.4035 13.2616 39.0269 13.885L45.4448 20.1463C45.7515 20.4455 45.8907 20.8769 45.8166 21.299L44.2696 30.1171C44.2566 30.1911 44.2498 30.2661 44.2503 30.3412C44.2522 30.6406 44.2689 30.9399 44.4186 31.2392C44.924 32.0817 45.9349 32.4186 46.7774 31.9132L54.7633 27.6853C55.143 27.4843 55.5975 27.4843 55.9772 27.6853L63.7907 31.8219C63.905 31.8824 64.007 31.9691 64.1281 32.0143C64.309 32.0817 64.5573 32.0817 64.8056 32.0817C64.9157 32.0817 64.9538 32.0817 65.0141 32.0817C65.0995 32.0817 65.1852 32.0748 65.2674 32.0515C66.0502 31.8286 66.6505 31.0203 66.4904 30.0598L64.9239 21.1305C64.8499 20.7084 64.989 20.277 65.2957 19.9778L71.5688 13.8578C71.6647 13.7642 71.7794 13.6918 71.8831 13.6069C72.0722 13.4521 72.1814 13.2322 72.2109 13.0022Z" fill="white"/>
</svg>
