<svg width="172" height="164" viewBox="0 0 172 164" fill="none" xmlns="http://www.w3.org/2000/svg">
<path d="M36.0273 105.716H14.8848C10.4665 105.716 6.88477 109.298 6.88477 113.716V148.967C6.88477 153.385 10.4665 156.967 14.8848 156.967H156.657C161.075 156.967 164.657 153.385 164.657 148.967V113.716C164.657 109.298 161.075 105.716 156.657 105.716H132.499" stroke="white" stroke-width="13" stroke-linecap="round"/>
<path d="M54.1484 75.5293C54.1484 67.5212 60.6403 61.0293 68.6484 61.0293H102.895C110.903 61.0293 117.395 67.5212 117.395 75.5293H104.395C104.395 74.7009 103.723 74.0293 102.895 74.0293H68.6484C67.82 74.0293 67.1484 74.7009 67.1484 75.5293H54.1484ZM110.895 162.465H60.6484H110.895ZM68.6484 162.465C60.6403 162.465 54.1484 155.973 54.1484 147.965V75.5293C54.1484 67.5212 60.6403 61.0293 68.6484 61.0293V74.0293C67.82 74.0293 67.1484 74.7009 67.1484 75.5293V154.465C67.1484 158.884 67.82 162.465 68.6484 162.465ZM102.895 61.0293C110.903 61.0293 117.395 67.5212 117.395 75.5293V147.965C117.395 155.973 110.903 162.465 102.895 162.465C103.723 162.465 104.395 158.884 104.395 154.465V75.5293C104.395 74.7009 103.723 74.0293 102.895 74.0293V61.0293Z" fill="white"/>
<path d="M111.716 20.0461C111.733 19.9154 111.745 19.7838 111.758 19.6528C111.884 18.3983 110.885 16.9911 109.65 16.9911L95.8846 15.0591C95.233 14.9676 94.668 14.5615 94.3737 13.9729L88.0898 1.40521C87.8301 0.885681 87.5703 0.625916 87.0508 0.36615C85.752 -0.413147 84.1934 0.106385 83.4141 1.40521L77.3839 13.9479C77.0941 14.5508 76.5219 14.9689 75.8594 15.0619L62.1133 16.9911C61.4835 16.9911 61.0234 17.1608 60.7329 17.5001C60.5931 17.6634 60.4722 17.8443 60.3384 18.0126C59.5215 19.0404 59.5936 20.446 60.5547 21.4072L70.4494 31.0605C70.9223 31.5219 71.1368 32.187 71.0226 32.8377L68.6375 46.4329C68.6175 46.5471 68.6071 46.6627 68.6078 46.7785C68.6107 47.24 68.6364 47.7015 68.8672 48.163C69.6465 49.4619 71.2051 49.9814 72.5039 49.2021L84.8162 42.6838C85.4015 42.3739 86.1024 42.3739 86.6877 42.6838L98.7342 49.0614C98.9104 49.1547 99.0676 49.2884 99.2544 49.358C99.5333 49.4619 99.9161 49.4619 100.299 49.4619C100.469 49.4619 100.527 49.4619 100.62 49.4619C100.752 49.4619 100.884 49.4513 101.011 49.4153C102.218 49.0717 103.143 47.8254 102.896 46.3447L100.481 32.5779C100.367 31.9272 100.582 31.2621 101.055 30.8008L110.726 21.3652C110.874 21.2209 111.051 21.1094 111.211 20.9784C111.502 20.7397 111.671 20.4007 111.716 20.0461Z" fill="white"/>
</svg>
