<svg width="136" height="136" viewBox="0 0 136 136" fill="none" xmlns="http://www.w3.org/2000/svg">
<path d="M35.7358 86.5186H22.0224C19.1567 86.5186 16.8335 88.8417 16.8335 91.7075V114.571C16.8335 117.437 19.1567 119.76 22.0224 119.76H113.978C116.844 119.76 119.167 117.437 119.167 114.571V91.7075C119.167 88.8417 116.844 86.5186 113.978 86.5186H98.309" stroke="white" stroke-width="8.43199" stroke-linecap="round"/>
<path d="M47.4896 66.9389C47.4896 61.7447 51.7003 57.534 56.8945 57.534H79.107C84.3012 57.534 88.5119 61.7447 88.5119 66.9389H80.0799C80.0799 66.4016 79.6443 65.966 79.107 65.966H56.8945C56.3572 65.966 55.9216 66.4016 55.9216 66.9389H47.4896ZM84.2959 123.327H51.7056H84.2959ZM56.8945 123.327C51.7003 123.327 47.4896 119.116 47.4896 113.922V66.9389C47.4896 61.7447 51.7003 57.534 56.8945 57.534V65.966C56.3572 65.966 55.9216 66.4016 55.9216 66.9389V118.138C55.9216 121.004 56.3572 123.327 56.8945 123.327ZM79.107 57.534C84.3012 57.534 88.5119 61.7447 88.5119 66.9389V113.922C88.5119 119.116 84.3012 123.327 79.107 123.327C79.6443 123.327 80.0799 121.004 80.0799 118.138V66.9389C80.0799 66.4016 79.6443 65.966 79.107 65.966V57.534Z" fill="white"/>
<path d="M84.8285 30.9514C84.8394 30.8667 84.8471 30.7813 84.8557 30.6963C84.9376 29.8827 84.2893 28.9699 83.4888 28.9699L74.5601 27.7168C74.1374 27.6575 73.771 27.394 73.5801 27.0123L69.5043 18.8607C69.3358 18.5237 69.1673 18.3552 68.8304 18.1867C67.9879 17.6812 66.977 18.0182 66.4715 18.8607L62.5603 26.996C62.3723 27.3871 62.0012 27.6583 61.5715 27.7186L52.6556 28.9699C52.2471 28.9699 51.9486 29.08 51.7602 29.3C51.6695 29.406 51.5911 29.5233 51.5044 29.6324C50.9745 30.2991 51.0212 31.2108 51.6446 31.8342L58.0625 38.0955C58.3692 38.3948 58.5083 38.8261 58.4343 39.2482L56.8873 48.0663C56.8743 48.1403 56.8675 48.2153 56.868 48.2905C56.8698 48.5898 56.8866 48.8891 57.0362 49.1884C57.5417 50.0309 58.5526 50.3679 59.3951 49.8624L67.381 45.6346C67.7607 45.4336 68.2152 45.4336 68.5949 45.6346L76.4084 49.7711C76.5227 49.8316 76.6246 49.9184 76.7458 49.9635C76.9267 50.0309 77.175 50.0309 77.4232 50.0309C77.5334 50.0309 77.5715 50.0309 77.6318 50.0309C77.7172 50.0309 77.8029 50.0241 77.8851 50.0007C78.6679 49.7779 79.2682 48.9695 79.1081 48.009L77.5416 39.0797C77.4675 38.6577 77.6067 38.2263 77.9134 37.927L84.1864 31.807C84.2824 31.7134 84.3971 31.6411 84.5008 31.5561C84.6898 31.4013 84.7991 31.1814 84.8285 30.9514Z" fill="white"/>
</svg>
