<svg width="35" height="35" viewBox="0 0 35 35" fill="none" xmlns="http://www.w3.org/2000/svg">
<path opacity="0.9" d="M17.1445 0.532715C22.0213 0.532814 26.4222 2.45998 29.5439 5.55322L23.7354 11.0503C22.102 9.36168 19.7542 8.30235 17.1445 8.30225C12.2104 8.30225 8.21023 12.0871 8.20996 16.7563C8.20996 21.4258 12.2103 25.2114 17.1445 25.2114C19.4688 25.2113 21.5846 24.3703 23.1738 22.9937L28.9824 28.4907C25.905 31.272 21.7359 32.9809 17.1445 32.981C13.8711 32.981 10.8118 32.1123 8.20996 30.606V34.3521H0V16.5278H0.00195312C0.131394 7.67307 7.75686 0.532715 17.1445 0.532715Z" fill="white"/>
<path d="M27.4957 10.915C28.3795 11.7514 29.0806 12.7443 29.5589 13.837L29.6458 14.043C30.0669 15.0763 30.2832 16.1751 30.2832 17.2839L30.2804 17.5053C30.2516 18.6126 30.0072 19.706 29.5588 20.7305L29.4666 20.9343C28.9922 21.9468 28.3242 22.8683 27.4957 23.6524L25.959 22.1982C26.5983 21.5931 27.1138 20.882 27.4798 20.1006L27.551 19.9436C27.8971 19.1531 28.0856 18.3092 28.1078 17.4548L28.1101 17.2837C28.1101 16.4281 27.943 15.5803 27.6181 14.7829L27.551 14.6241C27.1819 13.7809 26.641 13.0146 25.959 12.3693L27.4957 10.915Z" fill="white"/>
<path d="M23.9813 14.2417C24.4034 14.6412 24.7382 15.1155 24.9667 15.6375L25.0082 15.7358C25.2094 16.2295 25.3129 16.7543 25.3129 17.2839L25.3114 17.3898C25.2976 17.9187 25.1809 18.441 24.9667 18.9304L24.9227 19.0276C24.6961 19.5113 24.3771 19.9516 23.9813 20.3262L22.4446 18.872C22.6374 18.6895 22.7954 18.4771 22.9118 18.2443L22.959 18.1434C23.0633 17.905 23.1235 17.6516 23.1369 17.3944L23.1396 17.2839C23.1396 17.0259 23.0926 16.7701 23.001 16.5276L22.959 16.4244C22.8397 16.152 22.6649 15.9044 22.4446 15.6959L23.9813 14.2417Z" fill="white"/>
<path d="M30.8311 7.75903C32.1528 9.00981 33.2012 10.4947 33.9165 12.1289L33.9827 12.2825C34.6546 13.8726 35.0001 15.57 35.0001 17.2836L34.999 17.4494C34.9767 19.1619 34.6096 20.8552 33.9167 22.4383L33.8486 22.5911C33.1356 24.1651 32.1115 25.5964 30.8311 26.8081L29.2944 25.3539C30.3793 24.3272 31.2469 23.1144 31.8511 21.7807L31.9088 21.6513C32.4959 20.3099 32.8071 18.8751 32.826 17.4242L32.8268 17.2836C32.8268 15.8317 32.5341 14.3935 31.9648 13.0462L31.9088 12.9159C31.3027 11.5312 30.4143 10.273 29.2944 9.21325L30.8311 7.75903Z" fill="white"/>
<path opacity="0.9" d="M8.22293 17.2139C8.4738 21.6708 12.372 25.2117 17.1442 25.2117C20.1256 25.2117 22.7653 23.8294 24.3882 21.7055V31.4657C22.1877 32.4379 19.733 32.9809 17.1442 32.9809C13.8706 32.9809 10.8118 32.1118 8.20996 30.6053V17.2139H8.22293Z" fill="url(#paint0_linear_1_15)"/>
<defs>
<linearGradient id="paint0_linear_1_15" x1="6.65148" y1="23.3297" x2="21.2492" y2="23.3297" gradientUnits="userSpaceOnUse">
<stop stop-color="#101010"/>
<stop offset="1" stop-color="#464646" stop-opacity="0"/>
</linearGradient>
</defs>
</svg>
