<svg width="30" height="42" viewBox="0 0 30 42" fill="none" xmlns="http://www.w3.org/2000/svg">
<path d="M28.7445 18.6838L6.67173 0.929501C6.30919 0.634974 5.87787 0.401202 5.40265 0.241669C4.92742 0.0821362 4.4177 0 3.90288 0C3.38806 0 2.87834 0.0821362 2.40311 0.241669C1.92789 0.401202 1.49657 0.634974 1.13403 0.929501C0.40769 1.51826 0 2.31469 0 3.14486C0 3.97502 0.40769 4.77146 1.13403 5.36021L20.438 21.072L1.13403 36.6266C0.40769 37.2153 0 38.0118 0 38.8419C0 39.6721 0.40769 40.4685 1.13403 41.0573C1.49521 41.3542 1.92592 41.5904 2.40121 41.7522C2.87649 41.9141 3.38691 41.9983 3.90288 42C4.41885 41.9983 4.92926 41.9141 5.40455 41.7522C5.87984 41.5904 6.31055 41.3542 6.67173 41.0573L28.7445 23.303C29.1404 23.0088 29.4563 22.6516 29.6724 22.2541C29.8884 21.8566 30 21.4274 30 20.9934C30 20.5594 29.8884 20.1302 29.6724 19.7327C29.4563 19.3352 29.1404 18.978 28.7445 18.6838Z" fill="white"/>
</svg>
